
<!-- Generator: visioncortex VTracer 0.6.4 -->
<svg version="1.1" xmlns="http://www.w3.org/2000/svg" viewBox="0 0 2199 559" preserveAspectRatio="xMidYMid meet">
<path d="M0 0 C21.474 -2.052 35.277 0.706 54.039 12.209 C58.829 15.106 63.813 17.598 68.798 20.137 C73.044 22.341 77.118 24.681 81.14 27.274 C96.495 36.874 109.053 38.87 126.953 38.504 C130.51 38.446 134.067 38.467 137.624 38.478 C143.87 38.487 150.114 38.449 156.359 38.38 C165.745 38.276 175.13 38.252 184.517 38.245 C196.652 38.236 208.787 38.211 220.922 38.15 C221.89 38.145 222.858 38.14 223.855 38.135 C224.828 38.13 225.801 38.125 226.803 38.12 C252.468 37.989 278.13 38.012 303.794 38.099 C307.02 38.109 310.245 38.12 313.47 38.131 C322.259 38.159 331.048 38.188 339.837 38.218 C364.2 38.299 388.563 38.343 412.925 38.386 C418.981 38.397 425.036 38.408 431.092 38.419 C438.479 38.432 445.867 38.446 453.255 38.459 C478.868 38.505 504.482 38.556 530.095 38.607 C543.346 38.634 556.597 38.66 569.847 38.686 C570.509 38.688 571.17 38.689 571.852 38.69 C602.984 38.752 634.117 38.812 665.249 38.871 C667.3 38.875 669.352 38.879 671.403 38.883 C701.013 38.939 730.623 38.995 760.232 39.051 C772.682 39.074 785.131 39.098 797.581 39.121 C799.651 39.125 801.721 39.129 803.791 39.133 C835.075 39.192 866.359 39.251 897.643 39.314 C898.963 39.316 900.282 39.319 901.641 39.322 C914.821 39.348 928.001 39.374 941.181 39.401 C969.242 39.457 997.302 39.511 1025.363 39.561 C1045.759 39.597 1066.154 39.636 1086.55 39.678 C1097.541 39.701 1108.532 39.722 1119.523 39.74 C1170.356 39.82 1221.174 40.147 1272 41 C1271.363 44.043 1270.725 47.085 1270.087 50.128 C1269.818 51.412 1269.818 51.412 1269.544 52.723 C1268.255 58.864 1266.867 64.97 1265.337 71.055 C1265.1 72.01 1264.863 72.965 1264.619 73.948 C1263.85 77.043 1263.075 80.137 1262.301 83.23 C1261.747 85.451 1261.194 87.671 1260.641 89.892 C1259.173 95.778 1257.7 101.663 1256.225 107.548 C1255.308 111.207 1254.392 114.866 1253.476 118.525 C1204.051 315.882 1204.051 315.882 1170.793 335.934 C1158.378 342.654 1145.177 346.154 1131.086 346.617 C1130.109 346.654 1129.132 346.691 1128.125 346.729 C1113.795 347.211 1099.453 347.198 1085.116 347.24 C1080.693 347.254 1076.271 347.273 1071.848 347.291 C1063.106 347.327 1054.364 347.357 1045.622 347.385 C1038.352 347.408 1031.082 347.434 1023.812 347.461 C943.565 347.756 863.318 347.929 783.071 348.06 C771.469 348.079 759.867 348.099 748.266 348.119 C746.984 348.121 745.702 348.124 744.381 348.126 C702.768 348.198 661.156 348.334 619.544 348.504 C576.73 348.679 533.917 348.792 491.103 348.825 C485.059 348.83 479.015 348.836 472.971 348.842 C471.781 348.843 470.592 348.844 469.367 348.845 C450.224 348.865 431.082 348.95 411.94 349.06 C392.714 349.168 373.488 349.208 354.262 349.176 C342.839 349.159 331.419 349.196 319.997 349.308 C312.367 349.378 304.739 349.378 297.109 349.323 C292.761 349.294 288.418 349.294 284.07 349.378 C258.962 349.839 258.962 349.839 252.371 345.116 C248.12 340.703 245.382 335.798 242.982 330.197 C241.703 327.334 240.001 324.906 238.125 322.402 C237.602 321.654 237.079 320.905 236.541 320.134 C236.032 319.409 235.524 318.684 235 317.938 C234.426 317.118 233.852 316.298 233.26 315.454 C228.813 309.122 224.297 302.841 219.754 296.578 C216.13 291.579 212.551 286.551 209 281.5 C198.783 266.983 188.308 252.658 177.757 238.382 C176.022 236.03 174.293 233.674 172.566 231.316 C165.53 221.72 158.392 212.209 151.153 202.764 C150.509 201.924 149.866 201.084 149.203 200.219 C148.632 199.476 148.062 198.732 147.474 197.967 C144 193.331 144 193.331 144 190 C146.022 188.206 148.021 186.603 150.188 185 C151.48 184.016 152.77 183.031 154.059 182.043 C154.717 181.539 155.376 181.036 156.054 180.517 C159.026 178.2 161.89 175.765 164.75 173.312 C169.288 169.435 173.886 165.651 178.562 161.941 C182.037 159.174 185.467 156.352 188.902 153.535 C193.171 150.038 197.456 146.561 201.74 143.084 C205.193 140.281 208.644 137.476 212.09 134.664 C218.412 129.509 224.753 124.388 231.188 119.375 C236.353 115.348 241.389 111.194 246.361 106.931 C250.526 103.367 254.809 99.978 259.172 96.656 C261.261 95.036 261.261 95.036 262 92 C251.107 91.922 240.215 91.893 229.322 91.925 C224.263 91.938 219.205 91.935 214.146 91.894 C209.256 91.854 204.369 91.859 199.479 91.894 C197.621 91.899 195.763 91.89 193.905 91.863 C181.404 91.591 181.404 91.591 170.583 97.287 C169.022 98.825 167.492 100.395 166 102 C164.344 103.512 162.679 105.014 161 106.5 C160.179 107.248 159.358 107.995 158.512 108.766 C155.998 111.001 153.427 113.134 150.812 115.25 C144.373 120.465 138.145 125.913 131.896 131.354 C128.353 134.43 124.788 137.482 121.22 140.53 C118.198 143.112 115.186 145.704 112.188 148.312 C111.56 148.856 110.932 149.4 110.285 149.961 C109.089 150.998 107.896 152.037 106.705 153.08 C103.626 155.743 100.564 158.029 97 160 C88.906 147.192 81.052 134.24 73.202 121.282 C69.746 115.579 66.281 109.883 62.812 104.188 C62.247 103.259 61.681 102.33 61.099 101.373 C59.966 99.513 58.834 97.654 57.702 95.794 C54.8 91.03 51.9 86.265 49 81.5 C47.833 79.583 46.667 77.667 45.5 75.75 C38.5 64.25 31.5 52.75 24.5 41.25 C23.921 40.299 23.343 39.349 22.747 38.37 C21.591 36.471 20.436 34.572 19.281 32.673 C16.197 27.604 13.106 22.538 10.008 17.477 C9.358 16.414 8.708 15.351 8.039 14.256 C6.783 12.201 5.525 10.148 4.266 8.096 C3.706 7.18 3.147 6.264 2.57 5.32 C2.073 4.508 1.575 3.696 1.063 2.86 C0 1 0 1 0 0 Z " fill="#4A4A4A" transform="translate(850,0)"/>
<path d="M0 0 C1.459 -0.004 1.459 -0.004 2.947 -0.008 C6.208 -0.016 9.468 -0.017 12.728 -0.018 C15.089 -0.022 17.45 -0.027 19.81 -0.032 C25.618 -0.043 31.426 -0.049 37.234 -0.053 C42.064 -0.057 46.895 -0.062 51.725 -0.07 C52.423 -0.071 53.121 -0.072 53.839 -0.073 C54.893 -0.075 54.893 -0.075 55.968 -0.076 C107.821 -0.154 159.675 -0.148 211.528 -0.124 C219.237 -0.12 226.945 -0.117 234.654 -0.114 C235.505 -0.114 236.357 -0.114 237.235 -0.113 C264.868 -0.103 292.502 -0.13 320.136 -0.178 C348.549 -0.228 376.962 -0.242 405.375 -0.209 C409.387 -0.205 413.398 -0.201 417.409 -0.197 C418.199 -0.196 418.988 -0.195 419.801 -0.194 C432.512 -0.183 445.223 -0.208 457.933 -0.248 C470.703 -0.287 483.472 -0.286 496.242 -0.244 C503.162 -0.222 510.08 -0.218 517 -0.264 C523.332 -0.304 529.661 -0.294 535.993 -0.244 C538.286 -0.234 540.58 -0.244 542.873 -0.273 C560.024 -0.48 560.024 -0.48 565.158 3.513 C567.241 6.32 568.681 8.957 570.105 12.138 C571.124 13.723 572.165 15.295 573.24 16.843 C574.241 18.394 575.239 19.947 576.234 21.501 C577.364 23.253 578.494 25.003 579.625 26.754 C580.199 27.643 580.773 28.533 581.364 29.449 C584.202 33.833 587.072 38.195 589.945 42.556 C590.518 43.427 591.092 44.298 591.683 45.195 C593.469 47.906 595.255 50.616 597.042 53.326 C597.979 54.747 597.979 54.747 598.934 56.196 C607.65 69.418 616.405 82.613 625.203 95.781 C632.658 106.94 640.049 118.138 647.355 129.396 C649.752 133.086 652.186 136.746 654.667 140.38 C655.201 141.172 655.734 141.963 656.284 142.779 C657.255 144.217 658.238 145.648 659.236 147.068 C662.223 151.529 662.223 151.529 661.683 154.322 C659.686 156.62 657.561 158.44 655.167 160.326 C654.179 161.113 653.19 161.901 652.171 162.712 C651.159 163.513 650.147 164.313 649.105 165.138 C647.269 166.635 645.435 168.134 643.605 169.638 C642.691 170.386 641.777 171.133 640.835 171.904 C639.067 173.351 637.298 174.799 635.531 176.248 C629.373 181.291 623.199 186.314 617.019 191.332 C611.37 195.92 605.734 200.525 600.105 205.138 C597.349 207.394 594.592 209.649 591.835 211.904 C590.067 213.351 588.298 214.799 586.531 216.248 C580.373 221.291 574.199 226.314 568.019 231.332 C563.302 235.163 558.593 239.003 553.892 242.855 C551.022 245.206 548.152 247.555 545.281 249.904 C544.306 250.701 543.332 251.498 542.329 252.319 C541.595 252.919 540.861 253.52 540.105 254.138 C550.216 254.458 560.326 254.721 570.44 254.926 C576.253 255.051 582.058 255.252 587.866 255.507 C591.703 255.664 595.54 255.77 599.379 255.865 C601.218 255.921 603.056 256 604.893 256.101 C613.755 256.576 620.974 256.837 628.152 251.071 C630.405 249.043 632.53 246.934 634.599 244.719 C637.089 242.105 639.795 239.735 642.48 237.326 C643.471 236.413 644.46 235.499 645.449 234.583 C649.968 230.423 654.607 226.411 659.285 222.431 C665.042 217.527 670.751 212.599 676.292 207.451 C680.848 203.22 685.57 199.251 690.413 195.353 C694.776 191.763 698.942 187.958 703.105 184.138 C706.445 185.531 707.973 186.956 709.935 189.976 C710.458 190.771 710.981 191.565 711.52 192.384 C712.077 193.25 712.633 194.117 713.206 195.009 C714.09 196.359 714.09 196.359 714.991 197.736 C716.912 200.677 718.821 203.626 720.73 206.576 C722.061 208.617 723.393 210.657 724.726 212.697 C727.353 216.718 729.977 220.741 732.598 224.767 C736.72 231.089 740.9 237.37 745.105 243.638 C752.996 255.433 760.801 267.285 768.605 279.138 C776.806 291.594 785.012 304.047 793.292 316.451 C794 317.511 794.707 318.571 795.436 319.663 C798.423 324.134 801.415 328.601 804.413 333.064 C804.899 333.787 805.384 334.511 805.883 335.256 C806.743 336.538 807.605 337.818 808.469 339.096 C811.105 343.026 811.105 343.026 811.105 344.138 C789.585 345.896 774.87 344.283 755.966 332.848 C751.757 330.333 747.405 328.124 743.042 325.888 C741.696 325.178 740.351 324.464 739.007 323.748 C738.293 323.389 737.579 323.031 736.844 322.662 C734.105 321.138 734.105 321.138 731.134 318.954 C717.237 309.365 700.943 310.872 684.804 311.003 C680.36 311.029 675.917 311.002 671.474 310.982 C663.699 310.955 655.924 310.96 648.149 310.988 C636.587 311.029 625.026 311.018 613.465 310.997 C594.014 310.963 574.564 310.97 555.113 311.001 C535.86 311.032 516.607 311.045 497.354 311.032 C496.156 311.031 494.958 311.031 493.724 311.03 C487.64 311.026 481.555 311.021 475.471 311.017 C432.399 310.986 389.327 310.997 346.254 311.032 C304.416 311.066 262.577 311.081 220.739 311.071 C219.449 311.071 218.159 311.07 216.829 311.07 C203.873 311.067 190.917 311.063 177.961 311.06 C151.569 311.052 125.176 311.047 98.784 311.043 C96.964 311.043 96.964 311.043 95.107 311.043 C14.106 311.032 -66.894 311.08 -147.895 311.138 C-146.818 302.318 -146.818 302.318 -145.949 299.068 C-145.764 298.364 -145.579 297.66 -145.388 296.935 C-145.186 296.19 -144.984 295.445 -144.776 294.678 C-144.56 293.865 -144.344 293.052 -144.122 292.215 C-143.404 289.515 -142.679 286.817 -141.954 284.119 C-141.438 282.183 -140.922 280.247 -140.407 278.311 C-139.301 274.158 -138.192 270.005 -137.08 265.854 C-135.313 259.256 -133.554 252.657 -131.796 246.057 C-131.196 243.804 -130.595 241.551 -129.995 239.297 C-129.696 238.174 -129.397 237.051 -129.089 235.893 C-128.171 232.448 -127.252 229.004 -126.333 225.559 C-121.048 205.739 -115.809 185.907 -110.587 166.07 C-108.842 159.445 -107.093 152.82 -105.342 146.197 C-104.369 142.513 -103.396 138.83 -102.423 135.146 C-102.187 134.253 -101.951 133.359 -101.707 132.439 C-98.804 121.444 -95.932 110.441 -93.101 99.427 C-91.748 94.163 -90.383 88.902 -89.014 83.641 C-88.128 80.232 -87.249 76.821 -86.388 73.405 C-81.74 55.022 -76.799 39.52 -63.895 25.138 C-63.378 24.528 -62.861 23.919 -62.329 23.291 C-46.709 6.105 -22.384 -0.027 0 0 Z " fill="#EE1D3F" transform="translate(227.89517211914063,35.86184310913086)"/>
<path d="M0 0 C6.722 0.263 13.444 0.53 20.166 0.8 C22.447 0.891 24.728 0.981 27.009 1.07 C51.314 2.023 51.314 2.023 63 3 C62.336 10.722 60.275 18.015 58.258 25.477 C57.862 26.958 57.466 28.439 57.071 29.92 C56.214 33.13 55.353 36.34 54.49 39.548 C53.106 44.692 51.729 49.837 50.354 54.983 C49.999 56.311 49.999 56.311 49.637 57.665 C49.148 59.494 48.66 61.322 48.171 63.151 C47.411 65.993 46.651 68.836 45.89 71.678 C41.797 86.98 37.745 102.293 33.703 117.609 C33.087 119.943 32.471 122.276 31.855 124.61 C29.425 133.816 26.995 143.022 24.569 152.229 C23.138 157.665 21.703 163.099 20.267 168.534 C19.736 170.543 19.207 172.553 18.678 174.564 C17.95 177.333 17.218 180.101 16.486 182.869 C16.277 183.666 16.068 184.464 15.853 185.285 C14.435 190.625 12.755 195.735 11 201 C-23.98 201 -58.96 201 -95 201 C-97.475 195.06 -97.475 195.06 -100 189 C-101.022 186.762 -102.062 184.531 -103.125 182.312 C-106.386 175.434 -109.449 168.474 -112.5 161.5 C-115.432 154.8 -118.374 148.113 -121.5 141.5 C-125.142 133.796 -128.537 125.986 -131.953 118.18 C-134.406 112.587 -136.89 107.021 -139.5 101.5 C-142.626 94.887 -145.565 88.199 -148.5 81.5 C-149.452 79.344 -150.404 77.187 -151.355 75.031 C-152.957 71.399 -154.526 67.758 -156.051 64.094 C-156.638 62.729 -157.225 61.364 -157.812 60 C-158.293 58.845 -158.774 57.69 -159.27 56.5 C-160.826 53.679 -160.826 53.679 -164.199 53.125 C-165.123 53.084 -166.048 53.042 -167 53 C-167.236 54.278 -167.472 55.556 -167.716 56.873 C-169.345 65.001 -171.487 73.005 -173.551 81.031 C-174.006 82.811 -174.462 84.59 -174.917 86.37 C-176.129 91.106 -177.345 95.84 -178.561 100.575 C-179.564 104.478 -180.564 108.382 -181.565 112.285 C-184.704 124.525 -187.85 136.763 -191 149 C-191.201 149.782 -191.403 150.564 -191.61 151.369 C-194.003 160.665 -196.404 169.958 -198.812 179.25 C-199.08 180.286 -199.348 181.322 -199.624 182.389 C-200.358 185.223 -201.094 188.057 -201.832 190.891 C-202.146 192.106 -202.146 192.106 -202.466 193.346 C-203.885 198.77 -203.885 198.77 -205 201 C-225.13 201 -245.26 201 -266 201 C-264.876 190.888 -264.876 190.888 -263.723 186.988 C-263.462 186.086 -263.201 185.183 -262.932 184.253 C-262.502 182.798 -262.502 182.798 -262.062 181.312 C-258.908 170.35 -255.949 159.348 -253.062 148.312 C-252.631 146.666 -252.2 145.019 -251.768 143.372 C-251.126 140.921 -250.484 138.469 -249.842 136.018 C-247.874 128.506 -245.879 121.002 -243.875 113.5 C-243.553 112.294 -243.231 111.088 -242.899 109.845 C-242.255 107.437 -241.612 105.029 -240.968 102.621 C-239.309 96.415 -237.655 90.207 -236 84 C-235.333 81.5 -234.667 79 -234 76.5 C-233.67 75.262 -233.34 74.025 -233 72.75 C-232 69 -231 65.25 -230 61.5 C-229.67 60.26 -229.339 59.021 -228.999 57.744 C-228.337 55.264 -227.675 52.784 -227.013 50.305 C-225.45 44.45 -223.891 38.594 -222.346 32.734 C-221.617 29.967 -220.885 27.202 -220.153 24.436 C-219.637 22.484 -219.125 20.532 -218.613 18.58 C-218.3 17.397 -217.987 16.215 -217.664 14.996 C-217.39 13.956 -217.117 12.917 -216.834 11.845 C-216 9 -216 9 -214 4 C-178.69 4 -143.38 4 -107 4 C-93.276 32.592 -93.276 32.592 -87.75 44.875 C-86.8 46.978 -85.849 49.08 -84.898 51.182 C-84.246 52.623 -83.594 54.064 -82.943 55.505 C-80.661 60.551 -78.361 65.588 -76.051 70.621 C-69.44 85.024 -62.867 99.443 -56.415 113.918 C-55.736 115.441 -55.056 116.964 -54.375 118.486 C-42 146.173 -42 146.173 -42 150 C-40.02 150 -38.04 150 -36 150 C-35.853 149.135 -35.706 148.27 -35.555 147.379 C-32.367 129.479 -27.743 111.89 -23.312 94.265 C-21.416 86.708 -19.573 79.138 -17.75 71.562 C-15.003 60.15 -12.246 48.741 -9.472 37.336 C-9.039 35.556 -8.607 33.776 -8.175 31.997 C-5.581 21.294 -2.894 10.626 0 0 Z " fill="#FEFEFE" transform="translate(415,90)"/>
<path d="M0 0 C9.414 -0.209 18.827 -0.369 28.243 -0.466 C32.616 -0.513 36.987 -0.577 41.358 -0.679 C45.58 -0.777 49.799 -0.831 54.021 -0.854 C55.63 -0.87 57.238 -0.903 58.846 -0.952 C71.412 -1.317 71.412 -1.317 75.218 1.84 C76.794 4.163 77.912 6.417 79 9 C80.023 10.637 80.023 10.637 81.067 12.306 C81.678 13.318 82.289 14.329 82.918 15.371 C83.258 15.932 83.597 16.493 83.947 17.07 C85.029 18.858 86.108 20.648 87.188 22.438 C88.689 24.924 90.192 27.409 91.695 29.895 C92.064 30.504 92.432 31.114 92.811 31.742 C95.04 35.427 97.288 39.1 99.555 42.762 C100.07 43.596 100.585 44.43 101.116 45.289 C102.058 46.81 103.003 48.329 103.952 49.845 C107 54.779 107 54.779 107 57 C114.998 50.222 122.365 42.991 129.188 35.031 C131.211 32.764 133.337 30.634 135.5 28.5 C138.266 25.772 140.913 23.015 143.438 20.062 C146.962 15.946 150.789 12.176 154.668 8.395 C157.06 6.097 157.06 6.097 158.687 3.386 C161 1 161 1 164.328 0.399 C165.665 0.384 167.002 0.397 168.339 0.432 C169.071 0.432 169.803 0.431 170.557 0.43 C172.971 0.434 175.383 0.472 177.797 0.512 C179.473 0.521 181.148 0.528 182.824 0.533 C187.231 0.552 191.636 0.601 196.042 0.657 C200.539 0.708 205.037 0.731 209.535 0.756 C218.357 0.809 227.178 0.895 236 1 C231.815 6.937 227.183 12.075 222.004 17.156 C221.252 17.903 220.5 18.649 219.726 19.419 C217.343 21.784 214.953 24.142 212.562 26.5 C210.176 28.858 207.792 31.218 205.41 33.581 C203.935 35.045 202.457 36.505 200.975 37.963 C197.047 41.853 193.342 45.854 189.733 50.041 C186.818 53.336 183.692 56.411 180.562 59.5 C179.879 60.18 179.195 60.86 178.49 61.561 C175.603 64.432 172.709 67.298 169.815 70.164 C167.687 72.274 165.562 74.387 163.438 76.5 C162.796 77.134 162.154 77.767 161.492 78.42 C157.691 82.201 154.092 86.098 150.605 90.172 C148.196 92.915 145.613 95.451 143 98 C144.513 103.9 147.66 108.303 151.062 113.25 C152.337 115.132 153.611 117.015 154.883 118.898 C155.555 119.891 156.227 120.883 156.919 121.905 C160.476 127.195 163.956 132.535 167.438 137.875 C168.151 138.969 168.865 140.062 169.601 141.189 C171.735 144.459 173.867 147.729 176 151 C177.319 153.021 178.638 155.042 179.957 157.062 C182.438 160.863 184.917 164.666 187.395 168.469 C189.867 172.263 192.344 176.055 194.824 179.844 C196.029 181.687 197.233 183.531 198.438 185.375 C199 186.232 199.562 187.089 200.142 187.972 C200.65 188.752 201.159 189.532 201.684 190.336 C202.133 191.022 202.582 191.708 203.045 192.416 C204 194 204 194 204 195 C197.585 195.026 191.17 195.043 184.756 195.055 C182.585 195.06 180.414 195.067 178.243 195.075 C171.892 195.1 165.543 195.08 159.192 195.015 C155.968 195 152.748 195.044 149.524 195.089 C147.465 195.081 145.406 195.071 143.348 195.059 C141.938 195.101 141.938 195.101 140.499 195.144 C136.612 195.074 134.039 194.909 131.048 192.291 C129.18 189.948 127.584 187.543 126 185 C124.859 183.328 123.718 181.657 122.575 179.987 C121.394 178.194 120.217 176.399 119.043 174.602 C118.414 173.645 117.785 172.688 117.137 171.702 C115.15 168.679 113.169 165.652 111.188 162.625 C109.84 160.571 108.491 158.518 107.143 156.465 C104.19 151.969 101.241 147.471 98.294 142.971 C97.203 141.309 96.103 139.654 95 138 C86.427 141.947 80.293 149.785 74.059 156.63 C71.051 159.907 67.979 163.125 64.915 166.35 C62.25 169.161 59.614 171.991 57.03 174.877 C38.969 194.978 38.969 194.978 28.48 196.487 C22.975 196.725 17.644 196.174 12.198 195.401 C7.011 194.75 1.838 194.804 -3.383 194.781 C-5.349 194.741 -7.315 194.695 -9.281 194.645 C-10.72 194.609 -10.72 194.609 -12.188 194.573 C-13.157 194.549 -14.126 194.525 -15.125 194.5 C-17.174 194.452 -19.224 194.403 -21.273 194.355 C-26.182 194.24 -31.091 194.121 -36 194 C-31.272 188.268 -26.15 183.03 -20.875 177.8 C-19.346 176.283 -17.819 174.763 -16.294 173.243 C-12.505 169.468 -8.712 165.698 -4.918 161.929 C-1.704 158.734 1.508 155.538 4.717 152.339 C6.208 150.855 7.701 149.374 9.195 147.893 C13.743 143.361 18.138 138.785 22.317 133.911 C25.427 130.381 28.783 127.094 32.121 123.781 C32.866 123.038 33.611 122.295 34.378 121.529 C36.729 119.183 39.083 116.842 41.438 114.5 C43.044 112.899 44.65 111.297 46.256 109.695 C50.168 105.794 54.083 101.896 58 98 C56.886 94.415 55.751 91.253 53.707 88.102 C53.25 87.388 52.792 86.674 52.321 85.939 C51.823 85.176 51.325 84.412 50.812 83.625 C49.719 81.921 48.627 80.217 47.535 78.512 C46.958 77.614 46.38 76.716 45.786 75.791 C42.738 71.028 39.744 66.233 36.75 61.438 C36.125 60.437 35.499 59.436 34.855 58.406 C29.491 49.811 24.174 41.189 18.876 32.554 C15.638 27.278 12.387 22.009 9.102 16.762 C8.189 15.301 8.189 15.301 7.258 13.811 C6.112 11.978 4.962 10.148 3.808 8.32 C3.304 7.513 2.8 6.706 2.281 5.875 C1.617 4.819 1.617 4.819 0.939 3.742 C0 2 0 2 0 0 Z " fill="#FEFEFE" transform="translate(1719,92)"/>
<path d="M0 0 C68.97 0 137.94 0 209 0 C206.748 12.385 206.748 12.385 205.09 18.566 C204.831 19.535 204.831 19.535 204.568 20.523 C204.209 21.861 203.849 23.2 203.486 24.537 C202.93 26.589 202.382 28.643 201.834 30.697 C199.148 40.704 199.148 40.704 198 43 C148.17 43 98.34 43 47 43 C45.68 48.61 44.36 54.22 43 60 C41.68 64.95 40.36 69.9 39 75 C91.47 75 143.94 75 198 75 C196.772 81.753 195.527 88.325 193.836 94.949 C193.639 95.733 193.442 96.516 193.239 97.323 C192.621 99.779 191.998 102.233 191.375 104.688 C190.95 106.372 190.526 108.056 190.102 109.74 C189.071 113.828 188.037 117.914 187 122 C164.958 122.031 142.917 122.051 120.875 122.062 C119.659 122.063 119.659 122.063 118.418 122.064 C77.985 122.085 37.555 122.097 -2.875 121.5 C-3.686 121.488 -4.497 121.476 -5.333 121.464 C-14.556 121.326 -23.778 121.175 -33 121 C-28.588 103.291 -28.588 103.291 -26.375 94.812 C-26.13 93.873 -25.885 92.933 -25.632 91.965 C-22.17 78.765 -18.583 65.598 -15.009 52.428 C-13.639 47.373 -12.279 42.316 -10.928 37.256 C-10.025 33.878 -9.12 30.501 -8.214 27.124 C-7.784 25.517 -7.356 23.91 -6.929 22.302 C-6.332 20.058 -5.731 17.816 -5.129 15.574 C-4.789 14.302 -4.45 13.029 -4.1 11.718 C-2.926 7.75 -1.453 3.875 0 0 Z " fill="#FEFDFD" transform="translate(530,169)"/>
<path d="M0 0 C1.099 0.002 2.198 0.004 3.331 0.007 C5.193 0.007 5.193 0.007 7.092 0.007 C8.457 0.012 9.821 0.017 11.186 0.023 C12.575 0.024 13.963 0.026 15.352 0.027 C19.013 0.031 22.674 0.041 26.335 0.052 C30.069 0.062 33.802 0.066 37.536 0.071 C44.866 0.082 52.196 0.099 59.526 0.12 C57.43 14.111 55.28 28.075 52.634 41.973 C51.87 45.989 51.123 50.007 50.378 54.027 C50.223 54.857 50.069 55.688 49.91 56.543 C48.213 65.741 46.646 74.96 45.088 84.183 C42.495 99.529 39.821 114.86 37.088 130.183 C36.909 131.19 36.729 132.197 36.544 133.235 C35.54 138.863 34.534 144.492 33.526 150.12 C34.423 150.118 35.32 150.116 36.245 150.114 C44.887 150.093 53.529 150.078 62.171 150.068 C66.609 150.063 71.047 150.056 75.485 150.045 C99.518 149.984 123.507 150.297 147.526 151.12 C147.022 156.828 146.396 162.401 145.186 168.011 C144.798 169.817 144.798 169.817 144.403 171.659 C144 173.496 144 173.496 143.588 175.37 C143.324 176.61 143.059 177.85 142.786 179.128 C141.597 184.613 140.306 189.779 138.526 195.12 C80.776 195.12 23.026 195.12 -36.474 195.12 C-35.349 186.117 -35.349 186.117 -34.674 181.968 C-34.523 181.039 -34.373 180.11 -34.218 179.153 C-34.058 178.173 -33.897 177.193 -33.732 176.183 C-33.563 175.144 -33.394 174.106 -33.22 173.036 C-32.862 170.844 -32.504 168.652 -32.145 166.461 C-31.605 163.159 -31.069 159.856 -30.533 156.554 C-28.878 146.398 -27.169 136.264 -25.234 126.158 C-23.599 117.562 -22.154 108.929 -20.662 100.308 C-20.306 98.26 -19.951 96.212 -19.595 94.165 C-17.639 82.887 -15.696 71.606 -13.767 60.324 C-12.807 54.71 -11.844 49.096 -10.88 43.482 C-10.595 41.823 -10.31 40.164 -10.026 38.504 C-9.067 32.913 -8.104 27.323 -7.135 21.733 C-6.821 19.917 -6.508 18.101 -6.197 16.284 C-5.766 13.768 -5.33 11.253 -4.892 8.737 C-4.763 7.979 -4.634 7.22 -4.501 6.439 C-3.4 0.165 -3.4 0.165 0 0 Z " fill="#FEFEFE" transform="translate(1345.4740142822266,91.87974548339844)"/>
<path d="M0 0 C19.121 -0.024 38.243 -0.041 57.364 -0.052 C66.251 -0.057 75.138 -0.064 84.024 -0.075 C128.694 -0.133 173.339 0.091 218 1 C214.382 16.113 210.136 31.007 206 46 C134.06 46 62.12 46 -12 46 C-9.526 35.488 -7.032 25.009 -4.312 14.562 C-4.005 13.368 -3.698 12.174 -3.381 10.943 C-3.086 9.808 -2.792 8.673 -2.488 7.504 C-2.094 5.985 -2.094 5.985 -1.693 4.436 C-1 2 -1 2 0 0 Z " fill="#FEFCFC" transform="translate(549,92)"/>
<path d="M0 0 C7.154 5.113 12.14 11.124 16 19 C16.373 19.736 16.745 20.472 17.129 21.23 C20.193 30.972 19.032 43.463 14.547 52.484 C7.654 63.694 -1.457 68.674 -14 72 C-14.99 72 -15.98 72 -17 72 C-17.17 73.151 -17.34 74.302 -17.516 75.488 C-18.722 83.478 -20.015 91.419 -21.75 99.312 C-23.91 109.163 -25.695 119.079 -27.5 129 C-29.376 139.303 -31.25 149.592 -33.505 159.82 C-35.597 169.483 -37.253 179.239 -38.983 188.972 C-39.109 189.677 -39.235 190.381 -39.364 191.108 C-39.711 193.049 -40.055 194.99 -40.399 196.932 C-41 200 -41 200 -42 203 C-43.29 202.782 -43.29 202.782 -44.605 202.559 C-46.793 202.199 -48.983 201.856 -51.176 201.535 C-52.211 201.379 -53.246 201.223 -54.312 201.062 C-55.361 200.909 -56.409 200.756 -57.488 200.598 C-58.317 200.4 -59.146 200.203 -60 200 C-61.615 196.77 -60.331 193.509 -59.664 190.086 C-59.51 189.265 -59.355 188.444 -59.196 187.598 C-58.678 184.856 -58.152 182.116 -57.625 179.375 C-57.259 177.446 -56.894 175.516 -56.53 173.587 C-55.757 169.497 -54.98 165.409 -54.201 161.321 C-52.428 152.006 -50.69 142.685 -48.947 133.365 C-48.189 129.321 -47.429 125.276 -46.669 121.232 C-45.158 113.191 -43.654 105.148 -42.168 97.102 C-41.76 94.897 -41.351 92.693 -40.942 90.489 C-40.576 88.51 -40.213 86.53 -39.851 84.55 C-38.809 78.937 -37.72 73.447 -36 68 C-36.722 67.763 -37.444 67.526 -38.188 67.281 C-46.808 63.354 -52.741 54.641 -56 46 C-58.904 37.232 -57.828 25.741 -54.262 17.395 C-48.65 6.744 -40.598 0.13 -29.203 -3.586 C-19.559 -5.398 -8.596 -4.929 0 0 Z " fill="#FCFBFB" transform="translate(1243,71)"/>
<path d="M0 0 C6.742 0.697 13.342 1.736 20 3 C18.343 13.142 16.56 23.26 14.75 33.375 C14.521 34.657 14.521 34.657 14.287 35.964 C12.052 48.443 9.668 60.881 7.139 73.304 C4.742 85.127 2.566 96.99 0.548 108.884 C0.169 111.038 -0.243 113.186 -0.681 115.329 C-0.889 116.395 -1.098 117.461 -1.312 118.559 C-1.51 119.51 -1.707 120.462 -1.91 121.443 C-2.02 124.576 -1.296 125.626 0.75 127.938 C1.578 128.663 1.578 128.663 2.422 129.402 C5.781 132.803 6.293 136.755 6.312 141.375 C6.175 147.788 4.951 151.732 0.688 156.688 C-5.493 162.006 -10.209 164.399 -18.309 164.27 C-24.848 163.615 -29.506 160.904 -33.938 156.125 C-38.673 150.173 -39.812 144.47 -39 137 C-37.663 131.266 -35.142 127.142 -31 123 C-27.701 121.02 -25.849 120 -22 120 C-21.914 119.147 -21.827 118.293 -21.738 117.414 C-20.397 105.475 -18.106 93.775 -15.781 81.994 C-14.413 75.028 -13.097 68.053 -11.777 61.078 C-11.323 58.682 -10.867 56.287 -10.411 53.892 C-9.184 47.424 -7.973 40.96 -6.918 34.461 C-6.248 30.351 -5.445 26.304 -4.509 22.247 C-3.546 17.995 -2.722 13.714 -1.875 9.438 C-1.693 8.524 -1.511 7.611 -1.324 6.67 C-0.882 4.447 -0.441 2.223 0 0 Z " fill="#FCFBFB" transform="translate(1175,143)"/>
<path d="M0 0 C5.257 0.479 10.455 0.955 15.625 2.062 C16.398 2.228 17.17 2.394 17.966 2.564 C18.973 2.78 18.973 2.78 20 3 C19.35 10.685 17.819 18.132 16.219 25.666 C15.414 29.457 14.624 33.252 13.836 37.047 C13.678 37.809 13.519 38.571 13.356 39.356 C11.93 46.261 10.632 53.187 9.375 60.125 C7.69 69.415 5.848 78.656 3.885 87.891 C1.357 99.883 -0.818 111.941 -3 124 C-2.34 124 -1.68 124 -1 124 C4.277 130.465 6.733 136.493 6 145 C4.352 153.422 0.126 157.955 -6.625 162.938 C-12.658 164.837 -19.387 165.318 -25.41 163.121 C-31.713 159.441 -36.726 153.966 -39 147 C-39.694 140.805 -39.705 135.21 -36 130 C-31.918 125.233 -28.383 121.277 -22 120 C-21.956 119.427 -21.912 118.855 -21.867 118.265 C-21.243 111.11 -19.974 104.162 -18.562 97.125 C-17.074 89.623 -15.649 82.126 -14.439 74.573 C-14.05 72.296 -13.591 70.06 -13.062 67.812 C-11.877 62.706 -11.015 57.545 -10.141 52.378 C-9.532 48.827 -8.862 45.306 -8.059 41.793 C-7.035 37.221 -6.135 32.633 -5.273 28.027 C-5.045 26.815 -5.045 26.815 -4.811 25.577 C-4.331 23.031 -3.853 20.484 -3.375 17.938 C-3.047 16.196 -2.719 14.454 -2.391 12.713 C-1.592 8.476 -0.796 4.238 0 0 Z " fill="#FCFBFB" transform="translate(1235,154)"/>
<path d="M0 0 C3.3 0 6.6 0 10 0 C14.305 14.692 18.209 29.45 21.875 44.312 C22.377 46.337 22.88 48.361 23.383 50.385 C24.592 55.256 25.798 60.127 27 65 C31.015 50.853 34.697 36.629 38.312 22.375 C38.868 20.193 39.423 18.01 39.979 15.828 C41.321 10.553 42.661 5.276 44 0 C47.3 0 50.6 0 54 0 C54 35.64 54 71.28 54 108 C50.7 108 47.4 108 44 108 C43.67 87.54 43.34 67.08 43 46 C38.764 62.035 38.764 62.035 34.533 78.072 C34.003 80.077 33.472 82.081 32.941 84.086 C32.666 85.134 32.39 86.181 32.106 87.261 C31.843 88.256 31.579 89.25 31.307 90.275 C31.078 91.141 30.849 92.007 30.614 92.899 C30 95 30 95 29 97 C27.68 96.67 26.36 96.34 25 96 C20.38 78.84 15.76 61.68 11 44 C10.67 65.12 10.34 86.24 10 108 C6.7 108 3.4 108 0 108 C0 72.36 0 36.72 0 0 Z " fill="#121212" transform="translate(962,405)"/>
<path d="M0 0 C3.3 0 6.6 0 10 0 C14.305 14.692 18.209 29.45 21.875 44.312 C22.377 46.337 22.88 48.361 23.383 50.385 C24.592 55.256 25.798 60.127 27 65 C31.015 50.853 34.697 36.629 38.312 22.375 C38.868 20.193 39.423 18.01 39.979 15.828 C41.321 10.553 42.661 5.276 44 0 C47.3 0 50.6 0 54 0 C54 35.64 54 71.28 54 108 C50.7 108 47.4 108 44 108 C43.67 87.54 43.34 67.08 43 46 C38.764 62.035 38.764 62.035 34.533 78.072 C34.003 80.077 33.472 82.081 32.941 84.086 C32.666 85.134 32.39 86.181 32.106 87.261 C31.843 88.256 31.579 89.25 31.307 90.275 C31.078 91.141 30.849 92.007 30.614 92.899 C30 95 30 95 29 97 C27.68 96.67 26.36 96.34 25 96 C20.38 78.84 15.76 61.68 11 44 C10.67 65.12 10.34 86.24 10 108 C6.7 108 3.4 108 0 108 C0 72.36 0 36.72 0 0 Z " fill="#121212" transform="translate(168,405)"/>
<path d="M0 0 C2.97 0 5.94 0 9 0 C9.281 0.784 9.563 1.568 9.853 2.376 C12.515 9.791 15.178 17.205 17.841 24.619 C19.21 28.43 20.579 32.241 21.947 36.053 C23.269 39.736 24.592 43.419 25.915 47.101 C26.418 48.501 26.921 49.901 27.423 51.302 C28.131 53.274 28.839 55.245 29.548 57.217 C29.95 58.336 30.352 59.455 30.766 60.608 C32.151 64.415 33.578 68.207 35 72 C35.33 48.24 35.66 24.48 36 0 C38.97 0 41.94 0 45 0 C45 35.64 45 71.28 45 108 C42.69 108 40.38 108 38 108 C34.491 100.435 31.634 92.697 28.832 84.848 C28.347 83.498 27.862 82.148 27.377 80.798 C26.11 77.273 24.847 73.747 23.585 70.221 C21.556 64.554 19.522 58.888 17.487 53.222 C16.778 51.247 16.072 49.272 15.365 47.296 C14.937 46.104 14.51 44.912 14.07 43.684 C13.693 42.632 13.316 41.58 12.929 40.496 C12.069 38.048 12.069 38.048 11 36 C10.67 59.76 10.34 83.52 10 108 C6.7 108 3.4 108 0 108 C0 72.36 0 36.72 0 0 Z " fill="#0E0D0D" transform="translate(1940,405)"/>
<path d="M0 0 C0.856 -0.006 1.711 -0.011 2.593 -0.017 C4.405 -0.027 6.216 -0.033 8.028 -0.037 C10.802 -0.047 13.575 -0.078 16.35 -0.109 C18.108 -0.116 19.867 -0.121 21.625 -0.125 C22.456 -0.137 23.288 -0.15 24.144 -0.162 C29.947 -0.14 29.947 -0.14 32.059 1.538 C35.24 5.552 34.534 10.425 34.54 15.277 C34.547 16.67 34.547 16.67 34.555 18.091 C34.57 21.168 34.577 24.244 34.582 27.32 C34.588 29.456 34.594 31.592 34.599 33.729 C34.61 38.209 34.616 42.69 34.619 47.17 C34.625 52.913 34.649 58.655 34.677 64.397 C34.696 68.81 34.701 73.223 34.702 77.636 C34.706 79.753 34.714 81.87 34.727 83.987 C34.744 86.949 34.742 89.909 34.735 92.871 C34.745 93.746 34.754 94.621 34.763 95.522 C34.728 100.695 34.221 104.361 30.379 108.203 C27.53 108.329 24.706 108.392 21.855 108.406 C20.998 108.412 20.141 108.418 19.258 108.424 C17.441 108.433 15.623 108.44 13.806 108.443 C11.022 108.453 8.24 108.484 5.457 108.516 C3.694 108.522 1.931 108.527 0.168 108.531 C-1.084 108.55 -1.084 108.55 -2.361 108.569 C-8.208 108.546 -8.208 108.546 -10.303 106.806 C-13.461 102.966 -12.769 98.778 -12.766 94.043 C-12.77 93.094 -12.773 92.144 -12.777 91.166 C-12.786 88.014 -12.788 84.862 -12.789 81.711 C-12.792 79.526 -12.796 77.341 -12.799 75.157 C-12.805 70.572 -12.807 65.987 -12.806 61.402 C-12.806 55.521 -12.82 49.641 -12.837 43.761 C-12.848 39.247 -12.85 34.733 -12.85 30.219 C-12.851 28.05 -12.855 25.882 -12.863 23.714 C-12.873 20.683 -12.87 17.653 -12.864 14.622 C-12.87 13.723 -12.875 12.824 -12.881 11.898 C-12.877 11.071 -12.873 10.243 -12.868 9.391 C-12.869 8.675 -12.869 7.958 -12.87 7.22 C-12.576 4.836 -11.878 3.243 -10.621 1.203 C-7.317 -0.449 -3.634 0.019 0 0 Z M-1.621 8.203 C-1.621 38.563 -1.621 68.923 -1.621 100.203 C6.629 100.203 14.879 100.203 23.379 100.203 C23.379 69.843 23.379 39.483 23.379 8.203 C15.129 8.203 6.879 8.203 -1.621 8.203 Z " fill="#171717" transform="translate(1873.62109375,404.796875)"/>
<path d="M0 0 C0.856 -0.006 1.711 -0.011 2.593 -0.017 C4.405 -0.027 6.216 -0.033 8.028 -0.037 C10.802 -0.047 13.575 -0.078 16.35 -0.109 C18.108 -0.116 19.867 -0.121 21.625 -0.125 C22.456 -0.137 23.288 -0.15 24.144 -0.162 C29.947 -0.14 29.947 -0.14 32.059 1.538 C35.24 5.552 34.534 10.425 34.54 15.277 C34.547 16.67 34.547 16.67 34.555 18.091 C34.57 21.168 34.577 24.244 34.582 27.32 C34.588 29.456 34.594 31.592 34.599 33.729 C34.61 38.209 34.616 42.69 34.619 47.17 C34.625 52.913 34.649 58.655 34.677 64.397 C34.696 68.81 34.701 73.223 34.702 77.636 C34.706 79.753 34.714 81.87 34.727 83.987 C34.744 86.949 34.742 89.909 34.735 92.871 C34.745 93.746 34.754 94.621 34.763 95.522 C34.728 100.695 34.221 104.361 30.379 108.203 C27.53 108.329 24.706 108.392 21.855 108.406 C20.998 108.412 20.141 108.418 19.258 108.424 C17.441 108.433 15.623 108.44 13.806 108.443 C11.022 108.453 8.24 108.484 5.457 108.516 C3.694 108.522 1.931 108.527 0.168 108.531 C-1.084 108.55 -1.084 108.55 -2.361 108.569 C-8.208 108.546 -8.208 108.546 -10.303 106.806 C-13.461 102.966 -12.769 98.778 -12.766 94.043 C-12.77 93.094 -12.773 92.144 -12.777 91.166 C-12.786 88.014 -12.788 84.862 -12.789 81.711 C-12.792 79.526 -12.796 77.341 -12.799 75.157 C-12.805 70.572 -12.807 65.987 -12.806 61.402 C-12.806 55.521 -12.82 49.641 -12.837 43.761 C-12.848 39.247 -12.85 34.733 -12.85 30.219 C-12.851 28.05 -12.855 25.882 -12.863 23.714 C-12.873 20.683 -12.87 17.653 -12.864 14.622 C-12.87 13.723 -12.875 12.824 -12.881 11.898 C-12.877 11.071 -12.873 10.243 -12.868 9.391 C-12.869 8.675 -12.869 7.958 -12.87 7.22 C-12.576 4.836 -11.878 3.243 -10.621 1.203 C-7.317 -0.449 -3.634 0.019 0 0 Z M-1.621 8.203 C-1.621 38.563 -1.621 68.923 -1.621 100.203 C6.629 100.203 14.879 100.203 23.379 100.203 C23.379 69.843 23.379 39.483 23.379 8.203 C15.129 8.203 6.879 8.203 -1.621 8.203 Z " fill="#171717" transform="translate(1540.62109375,404.796875)"/>
<path d="M0 0 C13.53 0 27.06 0 41 0 C45.501 5.627 45.501 5.627 45.533 9.711 C45.549 10.615 45.565 11.52 45.581 12.452 C45.576 13.416 45.572 14.381 45.566 15.375 C45.576 16.878 45.576 16.878 45.585 18.412 C45.592 20.526 45.589 22.641 45.576 24.756 C45.563 27.989 45.597 31.22 45.635 34.453 C45.636 36.51 45.634 38.568 45.629 40.625 C45.642 41.59 45.655 42.554 45.669 43.548 C45.607 48.064 45.457 50.343 42.824 54.129 C39.586 56.274 38.022 56.543 34.188 56.312 C33.212 56.267 32.236 56.222 31.23 56.176 C30.126 56.089 30.126 56.089 29 56 C29.439 57.22 29.877 58.44 30.329 59.697 C31.97 64.262 33.608 68.828 35.244 73.395 C35.95 75.364 36.657 77.333 37.365 79.301 C38.388 82.145 39.407 84.99 40.426 87.836 C40.738 88.703 41.051 89.57 41.373 90.463 C43.443 96.259 45.272 102.093 47 108 C43.37 108 39.74 108 36 108 C32.973 101.433 30.435 94.824 28.109 87.98 C27.76 86.959 27.41 85.938 27.05 84.887 C26.319 82.745 25.59 80.603 24.862 78.46 C23.747 75.177 22.62 71.898 21.492 68.619 C20.781 66.531 20.07 64.444 19.359 62.355 C19.022 61.376 18.685 60.397 18.337 59.388 C18.029 58.477 17.722 57.565 17.405 56.626 C16.997 55.427 16.997 55.427 16.581 54.205 C16 52 16 52 16 48 C21.94 48 27.88 48 34 48 C34 34.8 34 21.6 34 8 C26.41 8 18.82 8 11 8 C11 41 11 74 11 108 C7.37 108 3.74 108 0 108 C0 72.36 0 36.72 0 0 Z " fill="#171717" transform="translate(1332,405)"/>
<path d="M0 0 C13.53 0 27.06 0 41 0 C45.501 5.627 45.501 5.627 45.533 9.711 C45.549 10.615 45.565 11.52 45.581 12.452 C45.576 13.416 45.572 14.381 45.566 15.375 C45.576 16.878 45.576 16.878 45.585 18.412 C45.592 20.526 45.589 22.641 45.576 24.756 C45.563 27.989 45.597 31.22 45.635 34.453 C45.636 36.51 45.634 38.568 45.629 40.625 C45.642 41.59 45.655 42.554 45.669 43.548 C45.607 48.064 45.457 50.343 42.824 54.129 C39.586 56.274 38.022 56.543 34.188 56.312 C33.212 56.267 32.236 56.222 31.23 56.176 C30.126 56.089 30.126 56.089 29 56 C29.439 57.22 29.877 58.44 30.329 59.697 C31.97 64.262 33.608 68.828 35.244 73.395 C35.95 75.364 36.657 77.333 37.365 79.301 C38.388 82.145 39.407 84.99 40.426 87.836 C40.738 88.703 41.051 89.57 41.373 90.463 C43.443 96.259 45.272 102.093 47 108 C43.37 108 39.74 108 36 108 C32.973 101.433 30.435 94.824 28.109 87.98 C27.76 86.959 27.41 85.938 27.05 84.887 C26.319 82.745 25.59 80.603 24.862 78.46 C23.747 75.177 22.62 71.898 21.492 68.619 C20.781 66.531 20.07 64.444 19.359 62.355 C19.022 61.376 18.685 60.397 18.337 59.388 C18.029 58.477 17.722 57.565 17.405 56.626 C16.997 55.427 16.997 55.427 16.581 54.205 C16 52 16 52 16 48 C21.94 48 27.88 48 34 48 C34 34.8 34 21.6 34 8 C26.41 8 18.82 8 11 8 C11 41 11 74 11 108 C7.37 108 3.74 108 0 108 C0 72.36 0 36.72 0 0 Z " fill="#171717" transform="translate(1123,405)"/>
<path d="M0 0 C13.53 0 27.06 0 41 0 C45.501 5.627 45.501 5.627 45.533 9.711 C45.549 10.615 45.565 11.52 45.581 12.452 C45.576 13.416 45.572 14.381 45.566 15.375 C45.576 16.878 45.576 16.878 45.585 18.412 C45.592 20.526 45.589 22.641 45.576 24.756 C45.563 27.989 45.597 31.22 45.635 34.453 C45.636 36.51 45.634 38.568 45.629 40.625 C45.642 41.59 45.655 42.554 45.669 43.548 C45.607 48.064 45.457 50.343 42.824 54.129 C39.586 56.274 38.022 56.543 34.188 56.312 C33.212 56.267 32.236 56.222 31.23 56.176 C30.126 56.089 30.126 56.089 29 56 C29.439 57.22 29.877 58.44 30.329 59.697 C31.97 64.262 33.608 68.828 35.244 73.395 C35.95 75.364 36.657 77.333 37.365 79.301 C38.388 82.145 39.407 84.99 40.426 87.836 C40.738 88.703 41.051 89.57 41.373 90.463 C43.443 96.259 45.272 102.093 47 108 C43.37 108 39.74 108 36 108 C32.973 101.433 30.435 94.824 28.109 87.98 C27.76 86.959 27.41 85.938 27.05 84.887 C26.319 82.745 25.59 80.603 24.862 78.46 C23.747 75.177 22.62 71.898 21.492 68.619 C20.781 66.531 20.07 64.444 19.359 62.355 C19.022 61.376 18.685 60.397 18.337 59.388 C18.029 58.477 17.722 57.565 17.405 56.626 C16.997 55.427 16.997 55.427 16.581 54.205 C16 52 16 52 16 48 C21.94 48 27.88 48 34 48 C34 34.8 34 21.6 34 8 C26.41 8 18.82 8 11 8 C11 41 11 74 11 108 C7.37 108 3.74 108 0 108 C0 72.36 0 36.72 0 0 Z " fill="#171717" transform="translate(328,405)"/>
<path d="M0 0 C3.63 0 7.26 0 11 0 C11 33 11 66 11 100 C18.92 100 26.84 100 35 100 C35 67 35 34 35 0 C38.63 0 42.26 0 46 0 C46.093 13.343 46.164 26.686 46.207 40.03 C46.228 46.225 46.256 52.421 46.302 58.616 C46.345 64.595 46.369 70.573 46.38 76.551 C46.387 78.833 46.401 81.114 46.423 83.396 C46.452 86.59 46.456 89.783 46.454 92.977 C46.476 94.395 46.476 94.395 46.498 95.841 C46.471 100.023 46.343 102.407 44.215 106.088 C40.898 108.951 37.577 108.679 33.402 108.594 C32.156 108.594 32.156 108.594 30.885 108.594 C29.133 108.589 27.38 108.571 25.628 108.542 C22.943 108.5 20.261 108.501 17.576 108.508 C15.872 108.497 14.169 108.484 12.465 108.469 C11.662 108.469 10.859 108.468 10.031 108.468 C4.49 108.35 4.49 108.35 2.033 106.596 C0.233 103.816 -0.124 102.131 -0.12 98.849 C-0.122 97.98 -0.123 97.11 -0.124 96.215 C-0.121 95.259 -0.117 94.303 -0.114 93.318 C-0.114 92.313 -0.114 91.308 -0.114 90.273 C-0.113 86.94 -0.105 83.607 -0.098 80.273 C-0.096 77.967 -0.094 75.661 -0.093 73.354 C-0.09 67.275 -0.08 61.195 -0.069 55.116 C-0.058 48.916 -0.054 42.716 -0.049 36.516 C-0.038 24.344 -0.021 12.172 0 0 Z " fill="#171717" transform="translate(1672,405)"/>
<path d="M0 0 C3.63 0 7.26 0 11 0 C11 15.51 11 31.02 11 47 C19.25 47 27.5 47 36 47 C36 31.49 36 15.98 36 0 C39.3 0 42.6 0 46 0 C46 35.64 46 71.28 46 108 C42.7 108 39.4 108 36 108 C36 90.84 36 73.68 36 56 C27.75 56 19.5 56 11 56 C11 73.16 11 90.32 11 108 C7.37 108 3.74 108 0 108 C0 72.36 0 36.72 0 0 Z " fill="#0F0F0F" transform="translate(723,405)"/>
<path d="M0 0 C1.98 0 3.96 0 6 0 C5.783 1.216 5.783 1.216 5.562 2.457 C4.462 9.024 3.813 15.198 4.125 21.855 C4 24 4 24 2 26 C1.413 27.953 1.413 27.953 1.058 30.242 C0.9 31.129 0.742 32.016 0.58 32.929 C0.416 33.901 0.251 34.874 0.082 35.875 C-0.096 36.892 -0.274 37.908 -0.458 38.955 C-1.042 42.302 -1.615 45.651 -2.188 49 C-2.587 51.303 -2.988 53.607 -3.389 55.91 C-6.305 72.721 -9.133 89.547 -11.88 106.387 C-12.017 107.222 -12.154 108.057 -12.295 108.917 C-12.548 110.464 -12.8 112.012 -13.049 113.559 C-13.529 116.477 -14.063 119.189 -15 122 C-12.69 122 -10.38 122 -8 122 C-7.876 121.154 -7.753 120.309 -7.625 119.438 C-7 116 -7 116 -6.033 112.706 C-5.061 109.219 -4.401 105.848 -3.852 102.273 C-3.65 100.992 -3.449 99.711 -3.242 98.391 C-3.036 97.052 -2.83 95.714 -2.625 94.375 C-1.268 85.569 0.203 76.812 1.906 68.066 C4.475 54.842 6.549 41.539 8.651 28.234 C9.161 25.011 9.678 21.789 10.195 18.566 C10.423 17.104 10.423 17.104 10.656 15.612 C10.803 14.699 10.95 13.786 11.102 12.846 C11.228 12.052 11.353 11.258 11.483 10.44 C12.092 7.568 13.072 4.785 14 2 C23.405 3.485 23.405 3.485 33 5 C32.378 9.976 31.73 14.871 30.908 19.808 C30.588 21.741 30.588 21.741 30.261 23.713 C30.029 25.097 29.798 26.482 29.566 27.867 C29.326 29.312 29.086 30.756 28.845 32.2 C28.343 35.218 27.839 38.235 27.335 41.252 C26.693 45.094 26.053 48.935 25.415 52.777 C24.92 55.758 24.422 58.738 23.925 61.719 C23.689 63.134 23.453 64.549 23.218 65.964 C22.047 73.01 20.853 80.036 19.359 87.021 C18.871 89.708 18.873 92.278 19 95 C19.125 97.75 19.125 97.75 19 100 C18.34 100.66 17.68 101.32 17 102 C16.5 104.065 16.097 106.154 15.746 108.25 C15.424 110.122 15.424 110.122 15.096 112.031 C14.876 113.354 14.656 114.677 14.438 116 C14.003 118.584 13.563 121.167 13.121 123.75 C12.834 125.475 12.834 125.475 12.541 127.234 C12 130 12 130 11 132 C9.35 131.67 7.7 131.34 6 131 C5.843 125.784 6.421 120.997 7.438 115.875 C8.663 109.424 9.417 103.113 9.691 96.539 C10 94 10 94 12 91 C12.496 89.047 12.496 89.047 12.746 86.895 C12.919 85.664 12.919 85.664 13.096 84.408 C13.208 83.552 13.321 82.695 13.438 81.812 C14.345 75.094 15.449 68.441 16.72 61.78 C17.873 55.726 18.965 49.662 20.043 43.594 C20.218 42.608 20.393 41.623 20.573 40.607 C21.112 37.572 21.65 34.536 22.188 31.5 C22.559 29.405 22.931 27.31 23.303 25.215 C24.203 20.143 25.102 15.072 26 10 C23.69 10 21.38 10 19 10 C18.89 10.648 18.781 11.296 18.668 11.964 C16.051 27.397 13.328 42.808 10.52 58.207 C10 61.064 9.481 63.922 8.963 66.78 C6.163 82.21 6.163 82.21 4.73 89.634 C4.352 91.591 3.982 93.549 3.611 95.508 C3.181 97.779 2.739 100.048 2.283 102.315 C1.009 109.114 1.011 115.153 2 122 C0.515 122.99 0.515 122.99 -1 124 C-2.205 126.552 -2.205 126.552 -3 129 C-5.063 128.858 -7.125 128.711 -9.188 128.562 C-10.91 128.441 -10.91 128.441 -12.668 128.316 C-15.52 128.046 -18.201 127.586 -21 127 C-20.528 116.264 -18.757 105.837 -16.904 95.27 C-16.365 92.195 -15.834 89.119 -15.305 86.043 C-13.861 77.667 -12.401 69.293 -10.938 60.92 C-10.109 56.171 -9.285 51.422 -8.464 46.672 C-8.009 44.05 -7.546 41.43 -7.083 38.81 C-6.805 37.206 -6.527 35.603 -6.25 34 C-6.058 32.933 -6.058 32.933 -5.863 31.844 C-5.301 28.559 -5.006 25.527 -5.047 22.188 C-5 19 -5 19 -3 16 C-2.386 13.265 -1.847 10.571 -1.375 7.812 C-1.241 7.063 -1.107 6.313 -0.969 5.541 C-0.64 3.695 -0.319 1.848 0 0 Z M-5 116 C-6.296 117.066 -6.296 117.066 -6.062 119.562 C-6.042 120.367 -6.021 121.171 -6 122 C-4.344 122.382 -2.675 122.714 -1 123 C0.296 121.934 0.296 121.934 0.062 119.438 C0.042 118.633 0.021 117.829 0 117 C-1.656 116.618 -3.325 116.286 -5 116 Z " fill="#F6F4F4" transform="translate(1583,158)"/>
<path d="M0 0 C1.178 -0.006 1.178 -0.006 2.38 -0.012 C4.04 -0.014 5.7 -0.007 7.36 0.01 C9.898 0.031 12.433 0.01 14.971 -0.016 C16.585 -0.013 18.199 -0.008 19.812 0 C20.57 -0.008 21.327 -0.016 22.108 -0.025 C25.455 0.035 27.625 0.306 30.458 2.144 C32.487 5.342 32.429 7.492 32.363 11.266 C32.35 12.561 32.338 13.857 32.324 15.191 C32.291 16.555 32.257 17.918 32.223 19.281 C32.203 20.66 32.184 22.039 32.168 23.418 C32.121 26.79 32.055 30.16 31.973 33.531 C28.673 33.531 25.373 33.531 21.973 33.531 C21.973 25.281 21.973 17.031 21.973 8.531 C14.383 8.531 6.793 8.531 -1.027 8.531 C-2.086 24.888 -2.086 24.888 4.973 38.781 C6.458 40.281 7.969 41.733 9.527 43.158 C11.764 45.283 13.624 47.676 15.535 50.094 C17.894 52.998 20.266 55.887 22.684 58.742 C23.365 59.549 23.365 59.549 24.06 60.373 C25.339 61.885 26.623 63.394 27.906 64.902 C31.605 69.608 32.289 73.061 32.309 79 C32.315 79.717 32.322 80.435 32.329 81.174 C32.339 82.687 32.344 84.199 32.343 85.712 C32.348 88.024 32.384 90.333 32.422 92.645 C32.428 94.117 32.432 95.59 32.434 97.062 C32.448 97.751 32.462 98.44 32.477 99.149 C32.447 102.29 32.127 104.284 30.454 106.965 C26.982 109.156 23.793 109.105 19.812 109.062 C19.026 109.066 18.24 109.07 17.43 109.074 C15.771 109.077 14.113 109.069 12.455 109.053 C9.915 109.031 7.378 109.053 4.838 109.078 C3.225 109.075 1.613 109.07 0 109.062 C-1.139 109.075 -1.139 109.075 -2.301 109.087 C-5.45 109.031 -7.506 108.948 -10.011 106.946 C-11.403 103.64 -11.364 100.944 -11.32 97.359 C-11.316 96.677 -11.312 95.995 -11.307 95.291 C-11.291 93.121 -11.253 90.951 -11.215 88.781 C-11.2 87.306 -11.186 85.831 -11.174 84.355 C-11.141 80.747 -11.089 77.139 -11.027 73.531 C-7.727 73.531 -4.427 73.531 -1.027 73.531 C-1.027 82.441 -1.027 91.351 -1.027 100.531 C6.563 100.531 14.153 100.531 21.973 100.531 C23.31 83.45 23.31 83.45 17.067 68.254 C14.959 66.059 12.79 63.965 10.512 61.946 C7.383 59.071 4.885 55.643 2.285 52.297 C0.55 50.221 -1.029 48.597 -3.027 46.828 C-9.611 40.539 -11.601 34.852 -11.896 25.794 C-11.928 23.664 -11.924 21.537 -11.902 19.406 C-11.896 18.706 -11.891 18.005 -11.885 17.283 C-11.709 6.093 -11.709 6.093 -9.987 2.147 C-6.954 -0.354 -3.757 -0.04 0 0 Z " fill="#0B0B0B" transform="translate(2029.02734375,404.46875)"/>
<path d="M0 0 C1.178 -0.006 1.178 -0.006 2.38 -0.012 C4.04 -0.014 5.7 -0.007 7.36 0.01 C9.898 0.031 12.433 0.01 14.971 -0.016 C16.585 -0.013 18.199 -0.008 19.812 0 C20.57 -0.008 21.327 -0.016 22.108 -0.025 C25.455 0.035 27.625 0.306 30.458 2.144 C32.487 5.342 32.429 7.492 32.363 11.266 C32.35 12.561 32.338 13.857 32.324 15.191 C32.291 16.555 32.257 17.918 32.223 19.281 C32.203 20.66 32.184 22.039 32.168 23.418 C32.121 26.79 32.055 30.16 31.973 33.531 C28.673 33.531 25.373 33.531 21.973 33.531 C21.973 25.281 21.973 17.031 21.973 8.531 C14.383 8.531 6.793 8.531 -1.027 8.531 C-2.086 24.888 -2.086 24.888 4.973 38.781 C6.458 40.281 7.969 41.733 9.527 43.158 C11.764 45.283 13.624 47.676 15.535 50.094 C17.894 52.998 20.266 55.887 22.684 58.742 C23.365 59.549 23.365 59.549 24.06 60.373 C25.339 61.885 26.623 63.394 27.906 64.902 C31.605 69.608 32.289 73.061 32.309 79 C32.315 79.717 32.322 80.435 32.329 81.174 C32.339 82.687 32.344 84.199 32.343 85.712 C32.348 88.024 32.384 90.333 32.422 92.645 C32.428 94.117 32.432 95.59 32.434 97.062 C32.448 97.751 32.462 98.44 32.477 99.149 C32.447 102.29 32.127 104.284 30.454 106.965 C26.982 109.156 23.793 109.105 19.812 109.062 C19.026 109.066 18.24 109.07 17.43 109.074 C15.771 109.077 14.113 109.069 12.455 109.053 C9.915 109.031 7.378 109.053 4.838 109.078 C3.225 109.075 1.613 109.07 0 109.062 C-1.139 109.075 -1.139 109.075 -2.301 109.087 C-5.45 109.031 -7.506 108.948 -10.011 106.946 C-11.403 103.64 -11.364 100.944 -11.32 97.359 C-11.316 96.677 -11.312 95.995 -11.307 95.291 C-11.291 93.121 -11.253 90.951 -11.215 88.781 C-11.2 87.306 -11.186 85.831 -11.174 84.355 C-11.141 80.747 -11.089 77.139 -11.027 73.531 C-7.727 73.531 -4.427 73.531 -1.027 73.531 C-1.027 82.441 -1.027 91.351 -1.027 100.531 C6.563 100.531 14.153 100.531 21.973 100.531 C23.31 83.45 23.31 83.45 17.067 68.254 C14.959 66.059 12.79 63.965 10.512 61.946 C7.383 59.071 4.885 55.643 2.285 52.297 C0.55 50.221 -1.029 48.597 -3.027 46.828 C-9.611 40.539 -11.601 34.852 -11.896 25.794 C-11.928 23.664 -11.924 21.537 -11.902 19.406 C-11.896 18.706 -11.891 18.005 -11.885 17.283 C-11.709 6.093 -11.709 6.093 -9.987 2.147 C-6.954 -0.354 -3.757 -0.04 0 0 Z " fill="#0B0B0B" transform="translate(1464.02734375,404.46875)"/>
<path d="M0 0 C1.178 -0.006 1.178 -0.006 2.38 -0.012 C4.04 -0.014 5.7 -0.007 7.36 0.01 C9.898 0.031 12.433 0.01 14.971 -0.016 C16.585 -0.013 18.199 -0.008 19.812 0 C20.57 -0.008 21.327 -0.016 22.108 -0.025 C25.455 0.035 27.625 0.306 30.458 2.144 C32.487 5.342 32.429 7.492 32.363 11.266 C32.35 12.561 32.337 13.857 32.324 15.191 C32.291 16.555 32.257 17.918 32.223 19.281 C32.203 20.66 32.184 22.039 32.168 23.418 C32.121 26.79 32.055 30.16 31.973 33.531 C28.673 33.531 25.373 33.531 21.973 33.531 C21.973 25.281 21.973 17.031 21.973 8.531 C14.383 8.531 6.793 8.531 -1.027 8.531 C-2.086 24.888 -2.086 24.888 4.973 38.781 C6.458 40.281 7.969 41.733 9.527 43.158 C11.764 45.283 13.624 47.676 15.535 50.094 C17.894 52.998 20.266 55.887 22.684 58.742 C23.365 59.549 23.365 59.549 24.06 60.373 C25.339 61.885 26.623 63.394 27.906 64.902 C31.605 69.608 32.289 73.061 32.309 79 C32.315 79.717 32.322 80.435 32.329 81.174 C32.339 82.687 32.344 84.199 32.343 85.712 C32.348 88.024 32.384 90.333 32.422 92.645 C32.428 94.117 32.432 95.59 32.434 97.062 C32.448 97.751 32.462 98.44 32.477 99.149 C32.447 102.29 32.127 104.284 30.454 106.965 C26.982 109.156 23.793 109.105 19.812 109.062 C19.026 109.066 18.24 109.07 17.43 109.074 C15.771 109.077 14.113 109.069 12.455 109.053 C9.915 109.031 7.378 109.053 4.838 109.078 C3.225 109.075 1.613 109.07 0 109.062 C-1.139 109.075 -1.139 109.075 -2.301 109.087 C-5.45 109.031 -7.506 108.948 -10.011 106.946 C-11.403 103.64 -11.364 100.944 -11.32 97.359 C-11.316 96.677 -11.312 95.995 -11.307 95.291 C-11.291 93.121 -11.253 90.951 -11.215 88.781 C-11.2 87.306 -11.186 85.831 -11.174 84.355 C-11.141 80.747 -11.089 77.139 -11.027 73.531 C-7.727 73.531 -4.427 73.531 -1.027 73.531 C-1.027 82.441 -1.027 91.351 -1.027 100.531 C6.563 100.531 14.153 100.531 21.973 100.531 C23.31 83.45 23.31 83.45 17.067 68.254 C14.959 66.059 12.79 63.965 10.512 61.946 C7.383 59.071 4.885 55.643 2.285 52.297 C0.55 50.221 -1.029 48.597 -3.027 46.828 C-9.611 40.539 -11.601 34.852 -11.896 25.794 C-11.928 23.664 -11.924 21.537 -11.902 19.406 C-11.896 18.706 -11.891 18.005 -11.885 17.283 C-11.709 6.093 -11.709 6.093 -9.987 2.147 C-6.954 -0.354 -3.757 -0.04 0 0 Z " fill="#0B0B0B" transform="translate(898.02734375,404.46875)"/>
<path d="M0 0 C1.178 -0.006 1.178 -0.006 2.38 -0.012 C4.04 -0.014 5.7 -0.007 7.36 0.01 C9.898 0.031 12.433 0.01 14.971 -0.016 C16.585 -0.013 18.199 -0.008 19.812 0 C20.57 -0.008 21.327 -0.016 22.108 -0.025 C25.455 0.035 27.625 0.306 30.458 2.144 C32.487 5.342 32.429 7.492 32.363 11.266 C32.35 12.561 32.338 13.857 32.324 15.191 C32.291 16.555 32.257 17.918 32.223 19.281 C32.203 20.66 32.184 22.039 32.168 23.418 C32.121 26.79 32.055 30.16 31.973 33.531 C28.673 33.531 25.373 33.531 21.973 33.531 C21.973 25.281 21.973 17.031 21.973 8.531 C14.383 8.531 6.793 8.531 -1.027 8.531 C-2.086 24.888 -2.086 24.888 4.973 38.781 C6.458 40.281 7.969 41.733 9.527 43.158 C11.764 45.283 13.624 47.676 15.535 50.094 C17.894 52.998 20.266 55.887 22.684 58.742 C23.365 59.549 23.365 59.549 24.06 60.373 C25.339 61.885 26.623 63.394 27.906 64.902 C31.605 69.608 32.289 73.061 32.309 79 C32.315 79.717 32.322 80.435 32.329 81.174 C32.339 82.687 32.344 84.199 32.343 85.712 C32.348 88.024 32.384 90.333 32.422 92.645 C32.428 94.117 32.432 95.59 32.434 97.062 C32.448 97.751 32.462 98.44 32.477 99.149 C32.447 102.29 32.127 104.284 30.454 106.965 C26.982 109.156 23.793 109.105 19.812 109.062 C19.026 109.066 18.24 109.07 17.43 109.074 C15.771 109.077 14.113 109.069 12.455 109.053 C9.915 109.031 7.378 109.053 4.838 109.078 C3.225 109.075 1.613 109.07 0 109.062 C-1.139 109.075 -1.139 109.075 -2.301 109.087 C-5.45 109.031 -7.506 108.948 -10.011 106.946 C-11.403 103.64 -11.364 100.944 -11.32 97.359 C-11.316 96.677 -11.312 95.995 -11.307 95.291 C-11.291 93.121 -11.253 90.951 -11.215 88.781 C-11.2 87.306 -11.186 85.831 -11.174 84.355 C-11.141 80.747 -11.089 77.139 -11.027 73.531 C-7.727 73.531 -4.427 73.531 -1.027 73.531 C-1.027 82.441 -1.027 91.351 -1.027 100.531 C6.563 100.531 14.153 100.531 21.973 100.531 C23.31 83.45 23.31 83.45 17.067 68.254 C14.959 66.059 12.79 63.965 10.512 61.946 C7.383 59.071 4.885 55.643 2.285 52.297 C0.55 50.221 -1.029 48.597 -3.027 46.828 C-9.611 40.539 -11.601 34.852 -11.896 25.794 C-11.928 23.664 -11.924 21.537 -11.902 19.406 C-11.896 18.706 -11.891 18.005 -11.885 17.283 C-11.709 6.093 -11.709 6.093 -9.987 2.147 C-6.954 -0.354 -3.757 -0.04 0 0 Z " fill="#0B0B0B" transform="translate(103.02734375,404.46875)"/>
<path d="M0 0 C8.061 0.655 15.869 2.024 23.789 3.627 C29.303 4.687 34.388 5.156 40.004 4.873 C42 5 42 5 44 7 C45.828 7.549 45.828 7.549 47.914 7.852 C48.675 7.98 49.435 8.109 50.219 8.242 C51.41 8.432 51.41 8.432 52.625 8.625 C53.427 8.759 54.229 8.893 55.055 9.031 C57.035 9.361 59.017 9.682 61 10 C60.67 11.98 60.34 13.96 60 16 C54.7 16.098 49.602 15.806 44.336 15.215 C41.81 14.94 41.81 14.94 38.5 15.062 C36 15 36 15 34 13 C31.783 12.352 31.783 12.352 29.203 11.93 C27.765 11.669 27.765 11.669 26.297 11.402 C25.291 11.228 24.286 11.054 23.25 10.875 C22.26 10.693 21.27 10.511 20.25 10.324 C15.451 9.471 10.896 8.75 6 9 C6.023 9.699 6.046 10.397 6.07 11.117 C6.097 12.482 6.097 12.482 6.125 13.875 C6.148 14.78 6.171 15.685 6.195 16.617 C6 19 6 19 4 21 C3.408 23.407 2.919 25.759 2.492 28.195 C2.362 28.903 2.231 29.61 2.097 30.339 C1.682 32.6 1.279 34.862 0.875 37.125 C0.596 38.658 0.316 40.19 0.035 41.723 C-0.651 45.48 -1.328 49.24 -2 53 C-0.857 53.049 0.287 53.098 1.465 53.148 C2.956 53.223 4.447 53.299 5.938 53.375 C7.07 53.421 7.07 53.421 8.225 53.469 C10.155 53.573 12.079 53.779 14 54 C14.33 54.66 14.66 55.32 15 56 C13.02 56 11.04 56 9 56 C8.01 58.475 8.01 58.475 7 61 C1.72 60.34 -3.56 59.68 -9 59 C-8.504 49.941 -7.065 41.254 -5.284 32.363 C-4.244 26.844 -4.058 22.389 -4.906 16.849 C-5 15 -5 15 -3.637 12.797 C-3.097 12.204 -2.556 11.611 -2 11 C-1.217 8.197 -1.217 8.197 -0.812 5.25 C-0.575 3.773 -0.575 3.773 -0.332 2.266 C-0.222 1.518 -0.113 0.77 0 0 Z M12 13 C30.637 14.957 30.637 14.957 38.938 16.625 C44.704 17.745 50.123 18.243 55.996 17.812 C56.657 17.874 57.319 17.936 58 18 C60 21 60 21 59.625 23.688 C59.419 24.451 59.213 25.214 59 26 C58.856 25.381 58.711 24.763 58.562 24.125 C58.068 21.967 58.068 21.967 57 20 C55.35 20 53.7 20 52 20 C51.67 21.98 51.34 23.96 51 26 C46.943 25.308 42.886 24.614 38.83 23.919 C37.45 23.682 36.071 23.447 34.692 23.212 C32.706 22.873 30.72 22.532 28.734 22.191 C27.54 21.987 26.346 21.783 25.116 21.573 C22.727 21.134 20.357 20.589 18 20 C16.35 28.25 14.7 36.5 13 45 C15.64 45.33 18.28 45.66 21 46 C23.341 46.487 25.675 47.005 28 47.562 C29.134 47.832 30.269 48.101 31.438 48.379 C32.283 48.584 33.129 48.789 34 49 C34.061 48.443 34.121 47.886 34.184 47.312 C34.745 42.202 35.351 37.1 36 32 C33.69 31.67 31.38 31.34 29 31 C29 33.31 29 35.62 29 38 C26.69 37.67 24.38 37.34 22 37 C22.66 33.37 23.32 29.74 24 26 C26.042 26.142 28.084 26.289 30.125 26.438 C31.262 26.519 32.399 26.6 33.57 26.684 C36.754 26.977 39.855 27.431 43 28 C43.275 34.196 42.226 39.876 41 45.938 C40.809 46.908 40.618 47.878 40.422 48.877 C39.954 51.253 39.48 53.627 39 56 C31.947 55.287 24.987 54.254 18 53.062 C16.428 52.808 16.428 52.808 14.824 52.549 C13.333 52.295 13.333 52.295 11.812 52.035 C10.911 51.884 10.01 51.734 9.082 51.578 C8.395 51.388 7.708 51.197 7 51 C5.374 47.747 6.607 44.395 7.215 40.93 C7.349 40.133 7.484 39.337 7.623 38.517 C8.055 35.969 8.496 33.422 8.938 30.875 C9.232 29.15 9.525 27.425 9.818 25.699 C10.539 21.465 11.267 17.232 12 13 Z M51 26 C53.31 26 55.62 26 58 26 C57.47 30.053 56.936 34.106 56.401 38.158 C56.22 39.531 56.039 40.904 55.86 42.277 C54.734 50.881 53.497 59.452 52 68 C44.754 67.129 37.516 66.236 30.297 65.164 C29.345 65.023 28.393 64.883 27.413 64.738 C25.523 64.456 23.634 64.169 21.745 63.878 C20.45 63.685 20.45 63.685 19.129 63.488 C18.356 63.37 17.583 63.252 16.787 63.13 C16.198 63.087 15.608 63.044 15 63 C14.505 63.495 14.505 63.495 14 64 C12 64.041 10 64.043 8 64 C8 63.01 8 62.02 8 61 C9.65 61.33 11.3 61.66 13 62 C13.66 60.02 14.32 58.04 15 56 C25.035 57.483 35.017 59.207 45 61 C45.111 60.295 45.221 59.59 45.335 58.864 C45.847 55.617 46.361 52.371 46.875 49.125 C47.049 48.016 47.223 46.908 47.402 45.766 C48.454 39.143 49.621 32.563 51 26 Z M21 37 C21.33 37 21.66 37 22 37 C22.33 38.65 22.66 40.3 23 42 C24.65 42.33 26.3 42.66 28 43 C27.67 43.66 27.34 44.32 27 45 C22.25 44.25 22.25 44.25 20 42 C20.375 39.375 20.375 39.375 21 37 Z M29 38 C29.33 39.32 29.66 40.64 30 42 C29.01 42.495 29.01 42.495 28 43 C28.33 41.35 28.66 39.7 29 38 Z " fill="#F6F5F5" transform="translate(1595,84)"/>
<path d="M0 0 C0.787 -0.008 1.573 -0.016 2.384 -0.024 C4.05 -0.038 5.716 -0.049 7.382 -0.057 C9.929 -0.074 12.474 -0.118 15.02 -0.162 C16.638 -0.172 18.257 -0.181 19.875 -0.188 C20.636 -0.205 21.396 -0.223 22.18 -0.241 C25.545 -0.227 27.704 0.002 30.558 1.844 C32.581 5.047 32.527 7.198 32.461 10.973 C32.448 12.268 32.435 13.564 32.422 14.898 C32.388 16.262 32.355 17.625 32.32 18.988 C32.3 20.367 32.282 21.746 32.266 23.125 C32.218 26.497 32.153 29.867 32.07 33.238 C28.77 33.238 25.47 33.238 22.07 33.238 C22.07 24.988 22.07 16.738 22.07 8.238 C14.48 8.238 6.89 8.238 -0.93 8.238 C-0.93 38.598 -0.93 68.958 -0.93 100.238 C6.66 100.238 14.25 100.238 22.07 100.238 C22.07 91.658 22.07 83.078 22.07 74.238 C25.37 74.238 28.67 74.238 32.07 74.238 C32.169 78.437 32.242 82.636 32.29 86.836 C32.31 88.264 32.337 89.692 32.372 91.119 C32.421 93.175 32.443 95.229 32.461 97.285 C32.482 98.521 32.503 99.757 32.524 101.03 C32.07 104.238 32.07 104.238 30.556 106.642 C27.083 108.873 23.907 108.794 19.91 108.734 C19.124 108.736 18.338 108.737 17.527 108.739 C15.869 108.737 14.211 108.726 12.552 108.705 C10.013 108.676 7.475 108.684 4.936 108.697 C3.323 108.691 1.71 108.683 0.098 108.672 C-1.041 108.676 -1.041 108.676 -2.204 108.681 C-7.448 108.587 -7.448 108.587 -9.869 106.836 C-12.559 102.784 -12.077 98.79 -12.075 94.079 C-12.078 93.129 -12.082 92.179 -12.085 91.201 C-12.095 88.049 -12.097 84.898 -12.098 81.746 C-12.101 79.561 -12.104 77.377 -12.108 75.192 C-12.114 70.607 -12.116 66.022 -12.115 61.437 C-12.115 55.557 -12.129 49.676 -12.146 43.796 C-12.157 39.282 -12.159 34.768 -12.158 30.254 C-12.16 28.086 -12.164 25.917 -12.172 23.749 C-12.181 20.718 -12.179 17.688 -12.173 14.657 C-12.178 13.758 -12.184 12.859 -12.19 11.933 C-12.185 11.106 -12.181 10.279 -12.177 9.426 C-12.177 8.71 -12.178 7.993 -12.179 7.255 C-11.884 4.871 -11.187 3.278 -9.93 1.238 C-6.796 -0.329 -3.442 0.033 0 0 Z " fill="#0F0F0F" transform="translate(658.9296875,404.76171875)"/>
<path d="M0 0 C3.63 0 7.26 0 11 0 C17.27 35.64 23.54 71.28 30 108 C26.37 108 22.74 108 19 108 C18.518 105.501 18.039 103.001 17.562 100.5 C17.428 99.804 17.293 99.108 17.154 98.391 C17.022 97.695 16.89 96.998 16.754 96.281 C16.633 95.653 16.513 95.024 16.389 94.377 C15.825 90.933 15.433 87.463 15 84 C8.4 84 1.8 84 -5 84 C-5.205 85.565 -5.41 87.13 -5.621 88.742 C-5.893 90.786 -6.165 92.831 -6.438 94.875 C-6.572 95.908 -6.707 96.94 -6.846 98.004 C-6.978 98.99 -7.11 99.976 -7.246 100.992 C-7.367 101.903 -7.487 102.815 -7.611 103.753 C-8 106 -8 106 -9 108 C-12.3 108 -15.6 108 -19 108 C-18.393 101.289 -17.529 94.714 -16.342 88.084 C-16.177 87.149 -16.013 86.215 -15.844 85.252 C-15.306 82.199 -14.762 79.146 -14.219 76.094 C-13.841 73.961 -13.464 71.827 -13.087 69.694 C-12.299 65.242 -11.509 60.791 -10.716 56.34 C-9.699 50.626 -8.689 44.912 -7.68 39.197 C-6.903 34.801 -6.124 30.405 -5.343 26.01 C-4.969 23.902 -4.596 21.793 -4.223 19.685 C-3.705 16.749 -3.182 13.815 -2.658 10.881 C-2.504 10.006 -2.351 9.131 -2.192 8.23 C-1.114 2.229 -1.114 2.229 0 0 Z M4 24 C2.858 31.084 1.719 38.168 0.582 45.252 C0.195 47.664 -0.193 50.075 -0.582 52.487 C-1.139 55.947 -1.695 59.407 -2.25 62.867 C-2.425 63.951 -2.6 65.034 -2.78 66.15 C-2.94 67.151 -3.101 68.152 -3.266 69.183 C-3.408 70.067 -3.55 70.951 -3.696 71.861 C-4.047 73.97 -4.047 73.97 -4 76 C1.94 76 7.88 76 14 76 C11.59 58.622 8.835 41.313 6 24 C5.34 24 4.68 24 4 24 Z " fill="#131313" transform="translate(1065,405)"/>
<path d="M0 0 C3.63 0 7.26 0 11 0 C17.27 35.64 23.54 71.28 30 108 C26.37 108 22.74 108 19 108 C18.518 105.501 18.039 103.001 17.562 100.5 C17.428 99.804 17.293 99.108 17.154 98.391 C17.022 97.695 16.89 96.998 16.754 96.281 C16.633 95.653 16.513 95.024 16.389 94.377 C15.825 90.933 15.433 87.463 15 84 C8.4 84 1.8 84 -5 84 C-5.205 85.565 -5.41 87.13 -5.621 88.742 C-5.893 90.786 -6.165 92.831 -6.438 94.875 C-6.572 95.908 -6.707 96.94 -6.846 98.004 C-6.978 98.99 -7.11 99.976 -7.246 100.992 C-7.367 101.903 -7.487 102.815 -7.611 103.753 C-8 106 -8 106 -9 108 C-12.3 108 -15.6 108 -19 108 C-18.393 101.289 -17.529 94.714 -16.342 88.084 C-16.177 87.149 -16.013 86.215 -15.844 85.252 C-15.306 82.199 -14.762 79.146 -14.219 76.094 C-13.841 73.961 -13.464 71.827 -13.087 69.694 C-12.299 65.242 -11.509 60.791 -10.716 56.34 C-9.699 50.626 -8.689 44.912 -7.68 39.197 C-6.903 34.801 -6.124 30.405 -5.343 26.01 C-4.969 23.902 -4.596 21.793 -4.223 19.685 C-3.705 16.749 -3.182 13.815 -2.658 10.881 C-2.504 10.006 -2.351 9.131 -2.192 8.23 C-1.114 2.229 -1.114 2.229 0 0 Z M4 24 C2.858 31.084 1.719 38.168 0.582 45.252 C0.195 47.664 -0.193 50.075 -0.582 52.487 C-1.139 55.947 -1.695 59.407 -2.25 62.867 C-2.425 63.951 -2.6 65.034 -2.78 66.15 C-2.94 67.151 -3.101 68.152 -3.266 69.183 C-3.408 70.067 -3.55 70.951 -3.696 71.861 C-4.047 73.97 -4.047 73.97 -4 76 C1.94 76 7.88 76 14 76 C11.59 58.622 8.835 41.313 6 24 C5.34 24 4.68 24 4 24 Z " fill="#131313" transform="translate(270,405)"/>
<path d="M0 0 C11.88 0 23.76 0 36 0 C36 2.64 36 5.28 36 8 C27.75 8 19.5 8 11 8 C11 21.53 11 35.06 11 49 C18.59 49 26.18 49 34 49 C34 51.97 34 54.94 34 58 C26.41 58 18.82 58 11 58 C11 71.86 11 85.72 11 100 C19.25 100 27.5 100 36 100 C36 102.64 36 105.28 36 108 C24.12 108 12.24 108 0 108 C0 72.36 0 36.72 0 0 Z " fill="#111111" transform="translate(1265,405)"/>
<path d="M0 0 C11.88 0 23.76 0 36 0 C36 2.64 36 5.28 36 8 C27.75 8 19.5 8 11 8 C11 21.53 11 35.06 11 49 C18.59 49 26.18 49 34 49 C34 51.97 34 54.94 34 58 C26.41 58 18.82 58 11 58 C11 71.86 11 85.72 11 100 C19.25 100 27.5 100 36 100 C36 102.64 36 105.28 36 108 C24.12 108 12.24 108 0 108 C0 72.36 0 36.72 0 0 Z " fill="#111111" transform="translate(580,405)"/>
<path d="M0 0 C5.622 3.352 9.563 8.222 11.562 14.438 C12.415 22.179 12.233 29.007 7.562 35.438 C3.176 40.799 -1.679 43.882 -8.527 44.895 C-15.388 45.239 -20.099 44.478 -25.566 40.215 C-31.219 34.846 -34.35 29.061 -34.875 21.188 C-34.703 14.794 -31.985 9.252 -27.723 4.543 C-20.179 -2.242 -9.495 -4.271 0 0 Z " fill="#4A4A4A" transform="translate(1234.4375,83.5625)"/>
<path d="M0 0 C14.52 0 29.04 0 44 0 C44 2.64 44 5.28 44 8 C38.72 8 33.44 8 28 8 C28 41 28 74 28 108 C24.37 108 20.74 108 17 108 C17 75 17 42 17 8 C11.39 8 5.78 8 0 8 C0 5.36 0 2.72 0 0 Z " fill="#121212" transform="translate(1745,405)"/>
<path d="M0 0 C14.52 0 29.04 0 44 0 C44 2.64 44 5.28 44 8 C38.72 8 33.44 8 28 8 C28 41 28 74 28 108 C24.37 108 20.74 108 17 108 C17 75 17 42 17 8 C11.39 8 5.78 8 0 8 C0 5.36 0 2.72 0 0 Z " fill="#121212" transform="translate(1193,405)"/>
<path d="M0 0 C14.52 0 29.04 0 44 0 C44 2.64 44 5.28 44 8 C38.72 8 33.44 8 28 8 C28 41 28 74 28 108 C24.37 108 20.74 108 17 108 C17 75 17 42 17 8 C11.39 8 5.78 8 0 8 C0 5.36 0 2.72 0 0 Z " fill="#121212" transform="translate(508,405)"/>
<path d="M0 0 C14.52 0 29.04 0 44 0 C44 2.64 44 5.28 44 8 C38.72 8 33.44 8 28 8 C28 41 28 74 28 108 C24.37 108 20.74 108 17 108 C17 75 17 42 17 8 C11.39 8 5.78 8 0 8 C0 5.36 0 2.72 0 0 Z " fill="#121212" transform="translate(399,405)"/>
<path d="M0 0 C4 1 4 1 4 1 Z M-50 -8 C-43.067 -7.95 -36.182 -6.791 -29.375 -5.562 C-28.676 -5.44 -27.977 -5.318 -27.258 -5.192 C-22.242 -4.242 -22.242 -4.242 -20 -2 C-17.862 -1.833 -17.862 -1.833 -15.438 -2 C-10.478 -2.101 -5.69 -1.731 -1 0 C-0.505 0.99 -0.505 0.99 0 2 C-6.15 2.964 -11.432 2.943 -17.535 1.785 C-18.299 1.651 -19.063 1.516 -19.851 1.377 C-22.257 0.951 -24.66 0.507 -27.062 0.062 C-28.707 -0.232 -30.353 -0.526 -31.998 -0.818 C-36.001 -1.532 -40.001 -2.262 -44 -3 C-44.048 -2.287 -44.097 -1.575 -44.146 -0.841 C-44.727 6.936 -45.778 14.561 -47.062 22.25 C-47.702 26.127 -48.341 30.005 -49 34 C-38.44 35.98 -27.88 37.96 -17 40 C-16.34 34.72 -15.68 29.44 -15 24 C-14.356 19.992 -13.711 15.995 -13 12 C-14.303 11.909 -14.303 11.909 -15.633 11.816 C-16.785 11.733 -17.938 11.649 -19.125 11.562 C-20.262 11.481 -21.399 11.4 -22.57 11.316 C-25.754 11.023 -28.855 10.569 -32 10 C-32.049 10.699 -32.098 11.397 -32.148 12.117 C-32.223 13.027 -32.298 13.937 -32.375 14.875 C-32.445 15.78 -32.514 16.685 -32.586 17.617 C-33 20 -33 20 -35 22 C-34.68 24.603 -34.68 24.603 -34 27 C-31.603 27.68 -31.603 27.68 -29 28 C-28.34 27.34 -27.68 26.68 -27 26 C-27.224 23.985 -27.454 21.969 -27.809 19.973 C-28 18 -28 18 -27 15 C-24.69 15 -22.38 15 -20 15 C-18.358 18.284 -19.734 21.656 -20.438 25.125 C-20.659 26.256 -20.659 26.256 -20.885 27.41 C-21.251 29.275 -21.625 31.137 -22 33 C-27.103 32.424 -31.997 31.636 -37 30.438 C-38.134 30.168 -39.269 29.899 -40.438 29.621 C-41.283 29.416 -42.129 29.211 -43 29 C-41.947 20.594 -40.831 12.278 -39 4 C-35.831 2.944 -35.092 3.02 -32.004 3.805 C-26.678 5.089 -21.321 6.114 -15.938 7.125 C-14.977 7.307 -14.016 7.489 -13.025 7.676 C-10.684 8.118 -8.342 8.56 -6 9 C-4.861 13.225 -5.201 16.475 -5.961 20.762 C-6.185 22.045 -6.41 23.328 -6.641 24.65 C-6.761 25.313 -6.882 25.975 -7.006 26.657 C-7.375 28.69 -7.732 30.724 -8.086 32.76 C-9.848 42.696 -9.848 42.696 -11 45 C-17.938 44.619 -24.732 43.812 -31.562 42.562 C-32.253 42.44 -32.943 42.318 -33.654 42.192 C-37.018 41.552 -39.108 40.928 -42 39 C-44.158 38.73 -46.328 38.552 -48.5 38.438 C-51.951 38.247 -54.717 38.094 -58 37 C-57.058 28.669 -55.991 20.378 -54.5 12.125 C-54.382 11.442 -54.263 10.759 -54.141 10.055 C-53.239 5.239 -53.239 5.239 -51 3 C-50.795 0.593 -50.795 0.593 -50.938 -2.062 C-50.992 -3.708 -51.02 -5.354 -51 -7 C-50.67 -7.33 -50.34 -7.66 -50 -8 Z M-4 3 C-1.375 2.812 -1.375 2.812 1 3 C2.125 5.312 2.125 5.312 3 8 C2.01 9.485 2.01 9.485 1 11 C-1.97 10.505 -1.97 10.505 -5 10 C-5.625 8.188 -5.625 8.188 -6 6 C-5.34 5.01 -4.68 4.02 -4 3 Z M-28 21 C-26.875 24.75 -26.875 24.75 -28 27 C-29.666 27.043 -31.334 27.041 -33 27 C-34 26 -34 26 -34.062 23.438 C-34.042 22.633 -34.021 21.829 -34 21 C-31.509 19.755 -30.589 20.223 -28 21 Z " fill="#515151" transform="translate(1651,100)"/>
<path d="M0 0 C2.792 0.308 5.584 0.621 8.375 0.938 C9.169 1.025 9.963 1.112 10.781 1.201 C16.773 1.887 16.773 1.887 19 3 C18.67 4.32 18.34 5.64 18 7 C16.68 6.67 15.36 6.34 14 6 C13.34 7.65 12.68 9.3 12 11 C11.67 9.68 11.34 8.36 11 7 C8.69 6.67 6.38 6.34 4 6 C3.839 7.02 3.678 8.04 3.513 9.092 C3.161 11.323 2.809 13.555 2.457 15.786 C1.779 20.081 1.103 24.375 0.429 28.671 C-0.781 36.379 -2 44.084 -3.324 51.773 C-3.515 52.896 -3.705 54.018 -3.901 55.174 C-4.247 57.2 -4.603 59.224 -4.97 61.246 C-5.966 67.136 -5.922 72.089 -5 78 C-5.99 78.495 -5.99 78.495 -7 79 C-7.495 76.525 -7.495 76.525 -8 74 C-10.437 74.27 -10.437 74.27 -13 75 C-13.66 75.99 -14.32 76.98 -15 78 C-14.125 73.125 -14.125 73.125 -13 72 C-12.593 69.976 -12.242 67.941 -11.914 65.902 C-11.707 64.634 -11.5 63.366 -11.287 62.059 C-11.125 61.049 -11.125 61.049 -10.959 60.019 C-10.402 56.551 -9.832 53.084 -9.262 49.617 C-9.151 48.94 -9.04 48.264 -8.925 47.566 C-7.959 41.699 -6.882 35.862 -5.754 30.023 C-4.524 23.576 -3.452 17.097 -2.357 10.625 C-2.195 9.68 -2.034 8.735 -1.867 7.762 C-1.724 6.916 -1.581 6.07 -1.433 5.198 C-1 3 -1 3 0 0 Z M19 7 C19.33 7 19.66 7 20 7 C20.125 9.375 20.125 9.375 20 12 C19.34 12.66 18.68 13.32 18 14 C17.304 16.394 17.304 16.394 16.816 19.215 C16.51 20.82 16.51 20.82 16.198 22.458 C15.988 23.606 15.778 24.754 15.562 25.938 C15.345 27.107 15.128 28.276 14.904 29.48 C14.258 32.985 13.627 36.492 13 40 C12.822 40.976 12.645 41.953 12.461 42.958 C12.001 45.512 11.558 48.067 11.125 50.625 C10.993 51.362 10.861 52.1 10.725 52.859 C10.131 56.535 9.988 59.643 10.555 63.336 C11 67 11 67 9 70 C8.34 69.67 7.68 69.34 7 69 C7.33 67.35 7.66 65.7 8 64 C4.951 62.989 4.951 62.989 2 64 C2.125 63.389 2.251 62.779 2.38 62.149 C5.855 45.144 9.014 28.098 12 11 C14.97 11.495 14.97 11.495 18 12 C18.33 10.35 18.66 8.7 19 7 Z M1 64 C3 67 3 67 3 69 C4.32 69.33 5.64 69.66 7 70 C6.471 78.484 5.266 86.665 3.625 95 C1.461 106.299 -0.402 117.608 -2 129 C-6.176 130.262 -9.579 129.489 -13.75 128.562 C-14.447 128.415 -15.145 128.267 -15.863 128.115 C-17.577 127.751 -19.289 127.377 -21 127 C-22.062 123.815 -21.952 122.655 -21.379 119.437 C-21.219 118.516 -21.059 117.595 -20.894 116.647 C-20.623 115.161 -20.623 115.161 -20.348 113.645 C-20.169 112.628 -19.99 111.611 -19.805 110.563 C-19.231 107.312 -18.647 104.062 -18.062 100.812 C-17.672 98.61 -17.282 96.408 -16.893 94.205 C-15.936 88.802 -14.971 83.4 -14 78 C-11.69 78.33 -9.38 78.66 -7 79 C-7.299 80.146 -7.598 81.292 -7.906 82.473 C-8.978 86.767 -9.779 91.074 -10.508 95.438 C-10.638 96.203 -10.769 96.969 -10.903 97.757 C-11.313 100.171 -11.719 102.586 -12.125 105 C-12.405 106.65 -12.685 108.3 -12.965 109.949 C-13.646 113.966 -14.324 117.983 -15 122 C-12.69 122 -10.38 122 -8 122 C-6.319 116.529 -5.216 111.087 -4.273 105.445 C-4.121 104.544 -3.968 103.643 -3.811 102.715 C-3.491 100.818 -3.174 98.92 -2.858 97.022 C-2.377 94.139 -1.884 91.259 -1.391 88.379 C-1.08 86.526 -0.77 84.673 -0.461 82.82 C-0.314 81.97 -0.167 81.12 -0.016 80.244 C0.881 74.758 1.131 69.559 1 64 Z " fill="#F3F2F2" transform="translate(1624,165)"/>
<path d="M0 0 C3.63 0 7.26 0 11 0 C11 33 11 66 11 100 C19.25 100 27.5 100 36 100 C36 102.64 36 105.28 36 108 C24.12 108 12.24 108 0 108 C0 72.36 0 36.72 0 0 Z " fill="#181818" transform="translate(1608,405)"/>
<path d="M0 0 C3.3 0 6.6 0 10 0 C10 35.64 10 71.28 10 108 C6.7 108 3.4 108 0 108 C0 72.36 0 36.72 0 0 Z " fill="#060606" transform="translate(1817,405)"/>
<path d="M0 0 C2.31 0.33 4.62 0.66 7 1 C8.605 8.749 7.144 15.806 5.75 23.5 C5.514 24.847 5.278 26.195 5.044 27.542 C4.583 30.176 4.114 32.808 3.64 35.44 C3.102 38.431 2.58 41.423 2.066 44.418 C0.28 54.58 0.28 54.58 -2 58 C-2.011 60.134 -2.014 62.268 -1.967 64.402 C-2.026 69.103 -2.897 73.683 -3.68 78.309 C-3.853 79.357 -4.025 80.404 -4.203 81.484 C-4.568 83.682 -4.936 85.88 -5.308 88.077 C-5.877 91.45 -6.429 94.825 -6.98 98.201 C-7.338 100.341 -7.696 102.481 -8.055 104.621 C-8.219 105.632 -8.384 106.644 -8.554 107.686 C-8.714 108.618 -8.874 109.549 -9.039 110.51 C-9.176 111.331 -9.314 112.152 -9.456 112.998 C-10 115 -10 115 -12 117 C-15.625 116.625 -15.625 116.625 -19 116 C-18.402 107.773 -17.289 99.654 -15.953 91.518 C-15.621 89.477 -15.307 87.434 -14.992 85.391 C-14.781 84.096 -14.569 82.802 -14.352 81.469 C-14.07 79.712 -14.07 79.712 -13.784 77.92 C-13 75 -13 75 -11.423 73.555 C-10.954 73.042 -10.484 72.529 -10 72 C-10.241 69.921 -10.493 67.843 -10.797 65.773 C-11.214 60.072 -9.91 54.449 -8.945 48.848 C-8.721 47.498 -8.498 46.148 -8.276 44.798 C-7.81 41.987 -7.337 39.177 -6.858 36.369 C-6.243 32.767 -5.642 29.163 -5.045 25.558 C-4.475 22.112 -3.898 18.667 -3.32 15.223 C-3.104 13.927 -2.887 12.631 -2.664 11.296 C-2.46 10.104 -2.257 8.912 -2.047 7.684 C-1.78 6.106 -1.78 6.106 -1.507 4.496 C-1 2 -1 2 0 0 Z M0 56 C2.062 56.438 2.062 56.438 4 57 C4.33 58.65 4.66 60.3 5 62 C3.02 62.99 3.02 62.99 1 64 C-0.562 62.75 -0.562 62.75 -2 61 C-1.749 58.863 -1.541 57.541 0 56 Z M-16 67 C-14.325 67.286 -12.656 67.618 -11 68 C-11 69.65 -11 71.3 -11 73 C-13.375 73.625 -13.375 73.625 -16 74 C-16.66 73.34 -17.32 72.68 -18 72 C-17.464 68.464 -17.464 68.464 -16 67 Z " fill="#4E4E4E" transform="translate(1628,171)"/>
<path d="M0 0 C9.955 1.023 19.811 2.118 29.625 4.125 C30.545 4.307 31.466 4.489 32.414 4.676 C34.611 5.111 36.806 5.552 39 6 C38.67 6.99 38.34 7.98 38 9 C38.389 11.143 38.389 11.143 39 13 C34.943 12.308 30.886 11.614 26.83 10.919 C25.45 10.682 24.071 10.447 22.692 10.212 C20.706 9.873 18.72 9.532 16.734 9.191 C15.54 8.987 14.346 8.783 13.116 8.573 C10.727 8.134 8.357 7.589 6 7 C4.35 15.25 2.7 23.5 1 32 C3.64 32.33 6.28 32.66 9 33 C11.341 33.487 13.675 34.005 16 34.562 C17.134 34.832 18.269 35.101 19.438 35.379 C20.283 35.584 21.129 35.789 22 36 C22.061 35.443 22.121 34.886 22.184 34.312 C22.745 29.202 23.351 24.1 24 19 C21.69 18.67 19.38 18.34 17 18 C17 20.31 17 22.62 17 25 C14.69 24.67 12.38 24.34 10 24 C10.66 20.37 11.32 16.74 12 13 C14.042 13.142 16.084 13.289 18.125 13.438 C19.262 13.519 20.399 13.6 21.57 13.684 C24.754 13.977 27.855 14.431 31 15 C31.275 21.196 30.226 26.876 29 32.938 C28.809 33.908 28.618 34.878 28.422 35.877 C27.954 38.253 27.48 40.627 27 43 C19.947 42.287 12.987 41.254 6 40.062 C4.428 39.808 4.428 39.808 2.824 39.549 C1.333 39.295 1.333 39.295 -0.188 39.035 C-1.089 38.884 -1.99 38.734 -2.918 38.578 C-3.605 38.388 -4.292 38.197 -5 38 C-6.626 34.747 -5.393 31.395 -4.785 27.93 C-4.651 27.133 -4.516 26.337 -4.377 25.517 C-3.945 22.969 -3.504 20.422 -3.062 17.875 C-2.768 16.15 -2.475 14.425 -2.182 12.699 C-1.461 8.465 -0.733 4.232 0 0 Z M9 24 C9.33 24 9.66 24 10 24 C10.33 25.65 10.66 27.3 11 29 C12.65 29.33 14.3 29.66 16 30 C15.67 30.66 15.34 31.32 15 32 C10.25 31.25 10.25 31.25 8 29 C8.375 26.375 8.375 26.375 9 24 Z M17 25 C17.33 26.32 17.66 27.64 18 29 C17.01 29.495 17.01 29.495 16 30 C16.33 28.35 16.66 26.7 17 25 Z " fill="#F8F7F7" transform="translate(1607,97)"/>
<path d="M0 0 C1.98 0 3.96 0 6 0 C5.783 1.216 5.783 1.216 5.562 2.457 C4.462 9.024 3.813 15.198 4.125 21.855 C4 24 4 24 2 26 C1.413 27.953 1.413 27.953 1.058 30.242 C0.9 31.129 0.742 32.016 0.58 32.929 C0.416 33.901 0.251 34.874 0.082 35.875 C-0.096 36.892 -0.274 37.908 -0.458 38.955 C-1.042 42.302 -1.615 45.651 -2.188 49 C-2.587 51.303 -2.988 53.607 -3.389 55.91 C-6.305 72.721 -9.133 89.547 -11.88 106.387 C-12.017 107.222 -12.154 108.057 -12.295 108.917 C-12.548 110.464 -12.8 112.012 -13.049 113.559 C-13.529 116.477 -14.063 119.189 -15 122 C-12.36 122.33 -9.72 122.66 -7 123 C-6.505 122.01 -6.505 122.01 -6 121 C-4.35 121.66 -2.7 122.32 -1 123 C-1.66 124.98 -2.32 126.96 -3 129 C-5.063 128.858 -7.125 128.711 -9.188 128.562 C-10.91 128.441 -10.91 128.441 -12.668 128.316 C-15.52 128.046 -18.201 127.586 -21 127 C-20.528 116.264 -18.757 105.837 -16.904 95.27 C-16.365 92.195 -15.834 89.119 -15.305 86.043 C-13.861 77.667 -12.401 69.293 -10.938 60.92 C-10.109 56.171 -9.285 51.422 -8.464 46.672 C-8.009 44.05 -7.546 41.43 -7.083 38.81 C-6.805 37.206 -6.527 35.603 -6.25 34 C-6.058 32.933 -6.058 32.933 -5.863 31.844 C-5.301 28.559 -5.006 25.527 -5.047 22.188 C-5 19 -5 19 -3 16 C-2.386 13.265 -1.847 10.571 -1.375 7.812 C-1.241 7.063 -1.107 6.313 -0.969 5.541 C-0.64 3.695 -0.319 1.848 0 0 Z M0 121 C0.33 121.66 0.66 122.32 1 123 C0.34 122.67 -0.32 122.34 -1 122 C-0.67 121.67 -0.34 121.34 0 121 Z " fill="#F7F6F6" transform="translate(1583,158)"/>
<path d="M0 0 C8.061 0.655 15.869 2.024 23.789 3.627 C29.303 4.687 34.388 5.156 40.004 4.873 C42 5 42 5 44 7 C45.828 7.549 45.828 7.549 47.914 7.852 C48.675 7.98 49.435 8.109 50.219 8.242 C51.41 8.432 51.41 8.432 52.625 8.625 C53.427 8.759 54.229 8.893 55.055 9.031 C57.035 9.361 59.017 9.682 61 10 C60.67 11.98 60.34 13.96 60 16 C54.7 16.098 49.602 15.806 44.336 15.215 C41.81 14.94 41.81 14.94 38.5 15.062 C36 15 36 15 34 13 C31.783 12.352 31.783 12.352 29.203 11.93 C27.765 11.669 27.765 11.669 26.297 11.402 C25.291 11.228 24.286 11.054 23.25 10.875 C22.26 10.693 21.27 10.511 20.25 10.324 C15.451 9.471 10.896 8.75 6 9 C5.963 9.615 5.925 10.23 5.887 10.863 C5.821 11.672 5.755 12.48 5.688 13.312 C5.629 14.113 5.571 14.914 5.512 15.738 C4.907 18.413 4.218 19.41 2 21 C-1.188 20.688 -1.188 20.688 -4 20 C-4.688 17.75 -4.688 17.75 -5 15 C-4.536 14.402 -4.072 13.804 -3.594 13.188 C-1.658 10.53 -1.312 8.481 -0.812 5.25 C-0.654 4.265 -0.495 3.28 -0.332 2.266 C-0.222 1.518 -0.113 0.77 0 0 Z " fill="#F3F1F1" transform="translate(1595,84)"/>
<path d="M0 0 C2.792 0.308 5.584 0.621 8.375 0.938 C9.169 1.025 9.963 1.112 10.781 1.201 C16.773 1.887 16.773 1.887 19 3 C18.67 4.32 18.34 5.64 18 7 C16.68 6.67 15.36 6.34 14 6 C13.34 7.65 12.68 9.3 12 11 C11.67 9.68 11.34 8.36 11 7 C8.69 6.67 6.38 6.34 4 6 C3.839 7.02 3.678 8.04 3.513 9.092 C3.161 11.323 2.809 13.555 2.457 15.786 C1.779 20.081 1.103 24.375 0.429 28.671 C-0.781 36.379 -2 44.084 -3.324 51.773 C-3.515 52.896 -3.705 54.018 -3.901 55.174 C-4.247 57.2 -4.603 59.224 -4.97 61.246 C-5.966 67.136 -5.922 72.089 -5 78 C-5.99 78.495 -5.99 78.495 -7 79 C-7.495 76.525 -7.495 76.525 -8 74 C-10.437 74.27 -10.437 74.27 -13 75 C-13.66 75.99 -14.32 76.98 -15 78 C-14.125 73.125 -14.125 73.125 -13 72 C-12.593 69.976 -12.242 67.941 -11.914 65.902 C-11.707 64.634 -11.5 63.366 -11.287 62.059 C-11.125 61.049 -11.125 61.049 -10.959 60.019 C-10.402 56.551 -9.832 53.084 -9.262 49.617 C-9.151 48.94 -9.04 48.264 -8.925 47.566 C-7.959 41.699 -6.882 35.862 -5.754 30.023 C-4.524 23.576 -3.452 17.097 -2.357 10.625 C-2.195 9.68 -2.034 8.735 -1.867 7.762 C-1.724 6.916 -1.581 6.07 -1.433 5.198 C-1 3 -1 3 0 0 Z M19 7 C19.33 7 19.66 7 20 7 C20.125 9.375 20.125 9.375 20 12 C19.34 12.66 18.68 13.32 18 14 C14.875 13.625 14.875 13.625 12 13 C12.33 12.34 12.66 11.68 13 11 C14.65 11.33 16.3 11.66 18 12 C18.33 10.35 18.66 8.7 19 7 Z " fill="#F3F1F2" transform="translate(1624,165)"/>
<path d="M0 0 C0.66 0 1.32 0 2 0 C1.67 1.65 1.34 3.3 1 5 C0 1.125 0 1.125 0 0 Z M-7 5 C-4.69 5 -2.38 5 0 5 C-0.692 9.057 -1.386 13.114 -2.081 17.17 C-2.318 18.55 -2.553 19.929 -2.788 21.308 C-3.127 23.294 -3.468 25.28 -3.809 27.266 C-4.013 28.46 -4.217 29.654 -4.427 30.884 C-4.87 33.292 -5.363 35.638 -6 38 C-4.857 38.049 -3.713 38.098 -2.535 38.148 C-1.044 38.223 0.447 38.299 1.938 38.375 C3.07 38.421 3.07 38.421 4.225 38.469 C6.155 38.573 8.079 38.779 10 39 C10.33 39.66 10.66 40.32 11 41 C9.02 41 7.04 41 5 41 C4.01 43.475 4.01 43.475 3 46 C-2.28 45.34 -7.56 44.68 -13 44 C-12.286 30.97 -10.305 17.635 -7 5 Z M11 41 C11.66 41 12.32 41 13 41 C12.34 42.32 11.68 43.64 11 45 C11 43.68 11 42.36 11 41 Z M3 46 C5.31 46.33 7.62 46.66 10 47 C10 47.66 10 48.32 10 49 C8.02 49 6.04 49 4 49 C3.67 48.01 3.34 47.02 3 46 Z " fill="#F3F2F2" transform="translate(1599,99)"/>
<path d="M0 0 C1.65 0.33 3.3 0.66 5 1 C4.304 9.625 2.894 18.08 1.416 26.598 C0.996 29.022 0.584 31.446 0.172 33.871 C-0.093 35.414 -0.359 36.957 -0.625 38.5 C-0.748 39.224 -0.871 39.948 -0.998 40.694 C-1.885 45.77 -1.885 45.77 -3 48 C-4.65 48 -6.3 48 -8 48 C-7.601 37.234 -5.567 26.948 -3.467 16.411 C-2.674 12.317 -2.025 8.204 -1.395 4.082 C-1 2 -1 2 0 0 Z " fill="#F8F6F7" transform="translate(1636,178)"/>
<path d="M0 0 C3.659 0.686 5.352 1.99 8 4.562 C9.427 7.416 9.31 9.397 9 12.562 C7.5 15.438 7.5 15.438 5 17.562 C2.204 18.221 -0.201 18.2 -3 17.562 C-6.344 14.99 -7.817 12.935 -8.375 8.75 C-8 5.562 -8 5.562 -5.875 2.688 C-3 0.562 -3 0.562 0 0 Z " fill="#4C4C4C" transform="translate(1158,274.4375)"/>
<path d="M0 0 C2.82 2.365 2.979 3.828 3.438 7.5 C3 11 3 11 1.438 13.375 C-1.855 15.57 -4.042 16.069 -8 16 C-10.938 14 -10.938 14 -13 11 C-13.562 7.438 -13.562 7.438 -13 4 C-8.998 -1.069 -6.214 -1.417 0 0 Z " fill="#4E4E4E" transform="translate(1223,288)"/>
<path d="M0 0 C3.96 0 7.92 0 12 0 C11.19 2.959 10.377 5.917 9.562 8.875 C9.332 9.717 9.102 10.559 8.865 11.426 C8.643 12.231 8.421 13.037 8.191 13.867 C7.987 14.611 7.783 15.354 7.573 16.121 C7 18 7 18 6 20 C3.36 20 0.72 20 -2 20 C-1.34 13.4 -0.68 6.8 0 0 Z " fill="#161515" transform="translate(801,501)"/>
<path d="M0 0 C1.65 0.33 3.3 0.66 5 1 C4.636 8.33 3.86 15.482 2.5 22.688 C2.369 23.382 2.239 24.077 2.104 24.793 C1.139 29.722 1.139 29.722 0 32 C-1.65 31.67 -3.3 31.34 -5 31 C-5.252 25.031 -4.3 19.641 -3.062 13.812 C-2.789 12.479 -2.789 12.479 -2.51 11.119 C-1.74 7.393 -0.943 3.686 0 0 Z " fill="#F9F8F8" transform="translate(1594,258)"/>
<path d="M0 0 C1.98 0 3.96 0 6 0 C5.783 1.216 5.783 1.216 5.562 2.457 C4.459 9.039 3.805 15.278 4.027 21.953 C4 24 4 24 3 25 C-2.529 25.235 -2.529 25.235 -5 24 C-5.201 20.284 -5.152 19.228 -3 16 C-2.386 13.265 -1.847 10.571 -1.375 7.812 C-1.241 7.063 -1.107 6.313 -0.969 5.541 C-0.64 3.695 -0.319 1.848 0 0 Z " fill="#F1EFEF" transform="translate(1583,158)"/>
<path d="M0 0 C8.91 1.485 8.91 1.485 18 3 C17.67 4.98 17.34 6.96 17 9 C10.717 9.233 5.12 8.405 -1 7 C-0.67 4.69 -0.34 2.38 0 0 Z " fill="#F8F7F7" transform="translate(1638,91)"/>
<path d="M0 0 C0 0.33 0 0.66 0 1 C-7.143 2.171 -12.957 1.593 -20 0 C-19 -2 -19 -2 -17.062 -2.688 C-11.142 -3.292 -5.244 -2.967 0 0 Z M0 -1 C4 0 4 0 4 0 Z " fill="#5E5E5E" transform="translate(1651,101)"/>
<path d="M0 0 C2.625 -0.188 2.625 -0.188 5 0 C6.125 2.312 6.125 2.312 7 5 C6.01 6.485 6.01 6.485 5 8 C2.625 7.75 2.625 7.75 0 7 C-1.312 4.938 -1.312 4.938 -2 3 C-1.34 2.01 -0.68 1.02 0 0 Z " fill="#484849" transform="translate(1647,103)"/>
<path d="M0 0 C2.625 -0.188 2.625 -0.188 5 0 C5.66 1.65 6.32 3.3 7 5 C5.812 6.562 5.812 6.562 4 8 C1.312 7.688 1.312 7.688 -1 7 C-1.625 5.188 -1.625 5.188 -2 3 C-1.34 2.01 -0.68 1.02 0 0 Z " fill="#484849" transform="translate(1593,97)"/>
<path d="M0 0 C2.625 0.375 2.625 0.375 5 1 C5.625 3.375 5.625 3.375 6 6 C5.34 6.66 4.68 7.32 4 8 C1.375 7.625 1.375 7.625 -1 7 C-1.625 4.625 -1.625 4.625 -2 2 C-1.34 1.34 -0.68 0.68 0 0 Z " fill="#444345" transform="translate(1632,90)"/>
<path d="M0 0 C2.625 0.375 2.625 0.375 5 1 C5.625 3.375 5.625 3.375 6 6 C5.34 6.66 4.68 7.32 4 8 C1.375 7.625 1.375 7.625 -1 7 C-1.625 4.625 -1.625 4.625 -2 2 C-1.34 1.34 -0.68 0.68 0 0 Z " fill="#434344" transform="translate(1604,139)"/>
<path d="M0 0 C2.062 0.438 2.062 0.438 4 1 C4.33 2.65 4.66 4.3 5 6 C3.02 6.99 3.02 6.99 1 8 C-0.562 6.75 -0.562 6.75 -2 5 C-1.749 2.863 -1.541 1.541 0 0 Z " fill="#585858" transform="translate(1628,227)"/>
<path d="M0 0 C1.675 0.286 3.344 0.618 5 1 C5 2.65 5 4.3 5 6 C2.625 6.625 2.625 6.625 0 7 C-0.66 6.34 -1.32 5.68 -2 5 C-1.464 1.464 -1.464 1.464 0 0 Z " fill="#525252" transform="translate(1612,238)"/>
<path d="M0 0 C1.675 0.286 3.344 0.618 5 1 C5 2.65 5 4.3 5 6 C3.344 6.382 1.675 6.714 0 7 C-1 6 -1 6 -1.125 3.5 C-1 1 -1 1 0 0 Z " fill="#505050" transform="translate(1578,274)"/>
<path d="M0 0 C1.207 0.031 1.207 0.031 2.438 0.062 C3.062 2.438 3.062 2.438 3.438 5.062 C2.777 5.723 2.118 6.382 1.438 7.062 C-0.688 6.688 -0.688 6.688 -2.562 6.062 C-2.945 4.406 -3.276 2.738 -3.562 1.062 C-2.562 0.062 -2.562 0.062 0 0 Z " fill="#4E4E4E" transform="translate(1597.5625,251.9375)"/>
<path d="M0 0 C2.125 0.375 2.125 0.375 4 1 C5.125 4.75 5.125 4.75 4 7 C2.35 7 0.7 7 -1 7 C-1.625 4.625 -1.625 4.625 -2 2 C-1.34 1.34 -0.68 0.68 0 0 Z " fill="#4E4E4E" transform="translate(1638,170)"/>
<path d="M0 0 C0 1.98 0 3.96 0 6 C-1.666 6.043 -3.334 6.041 -5 6 C-6 5 -6 5 -6.062 2.438 C-6.042 1.633 -6.021 0.829 -6 0 C-3.509 -1.245 -2.589 -0.777 0 0 Z " fill="#484749" transform="translate(1623,121)"/>
<path d="M0 0 C2.125 0.375 2.125 0.375 4 1 C4.625 2.875 4.625 2.875 5 5 C4.34 5.66 3.68 6.32 3 7 C0.875 6.625 0.875 6.625 -1 6 C-1.625 4.125 -1.625 4.125 -2 2 C-1.34 1.34 -0.68 0.68 0 0 Z " fill="#494949" transform="translate(1581,176)"/>
</svg>